<svg width="325" height="72" fill="none" xmlns="http://www.w3.org/2000/svg"><path d="M135.002 20.03h10.612c.523 0 .751.082.73.674a76.196 76.196 0 0 0 0 4.407c0 .525-.133.662-.671.662-5.046-.02-10.065 0-15.099-.029-.641 0-.855.184-.891.79-.113 1.768-.279 3.533-.415 5.298 0 .166-.131.39.095.499.225.108.365-.024.51-.155 1.342-1.22 2.969-1.563 4.749-1.52 2.325.056 4.658-.177 6.97.129 3.028.4 4.693 1.966 5.322 4.897.508 2.372.496 4.77.356 7.173a14.558 14.558 0 0 1-.593 3.792c-.837 2.526-2.755 4.049-5.45 4.183-4.433.227-8.874.227-13.307 0-3.351-.175-5.203-2.01-5.64-5.443-.166-1.275-.225-2.552-.279-3.836-.015-.382.095-.534.511-.534 2.018 0 4.037-.014 6.055-.043.398 0 .555.128.54.525a8.02 8.02 0 0 0 .297 2.42c.241.876.704 1.278 1.618 1.31 2.375.082 4.749.09 7.124 0 .95-.035 1.448-.463 1.635-1.37.421-2.04.421-4.142 0-6.182-.154-.767-.641-1.306-1.436-1.333-2.224-.072-4.453-.291-6.664.178a8.12 8.12 0 0 0-2.529 1.08 1.202 1.202 0 0 1-1.066.12c-1.65-.503-3.309-.975-4.972-1.433-.394-.108-.593-.236-.549-.7.351-4.953.682-9.912.995-14.876.035-.54.228-.692.771-.686 3.548.015 7.109.003 10.671.003Z" fill="#222"/><path fill-rule="evenodd" clip-rule="evenodd" d="M192.803 20.045a88.937 88.937 0 0 1-2.293-.024c-.768.023-1.535.025-2.302.027-1.225.004-2.45.007-3.676.093-2.853.175-4.797 1.534-5.919 4.084-.888 2.015-1.194 4.16-1.369 6.32a61.198 61.198 0 0 0 0 9.857c.167 2.045.472 4.069 1.238 6 1.116 2.818 3.182 4.302 6.269 4.43 3.843.162 7.687.162 11.532 0 2.983-.125 5.049-1.513 6.177-4.243.968-2.349 1.244-4.816 1.41-7.307a55.822 55.822 0 0 0-.14-9.296c-.204-2.066-.546-4.11-1.436-6.018-1.128-2.4-3.04-3.637-5.732-3.83-1.253-.089-2.507-.09-3.759-.093Zm-8.004 14.654.011.767c0 .474-.004.947-.009 1.421-.011 1.09-.021 2.181.024 3.279.016 1.235.199 2.463.543 3.652.09.364.299.69.595.926.296.236.663.37 1.044.383 1.402.132 2.805.113 4.209.095.492-.007.985-.013 1.478-.013 2.482.014 3.01-.47 3.34-2.885.02-.105.02-.198.02-.291.351-2.683.316-5.373.281-8.064a343.22 343.22 0 0 1-.016-1.434 26.252 26.252 0 0 0-.416-4.588c-.318-1.695-.879-2.182-2.633-2.182a339.865 339.865 0 0 0-5.622 0c-1.573.011-2.104.446-2.431 1.977-.489 2.297-.453 4.63-.418 6.957ZM160.223 50.935c.664-.002 1.321-.004 1.969.011.667-.01 1.324-.011 1.973-.012 1.367-.003 2.703-.005 4.041-.092 2.763-.187 4.749-1.43 5.892-3.932.867-1.896 1.226-3.915 1.413-5.957.39-3.997.346-8.024-.131-12.012-.237-1.878-.629-3.719-1.543-5.413a6.005 6.005 0 0 0-2.171-2.408 6.152 6.152 0 0 0-3.128-.95 118.466 118.466 0 0 0-12.241-.023c-2.924.128-4.871 1.604-5.975 4.212-.819 1.937-1.122 3.99-1.291 6.058a61.481 61.481 0 0 0 0 10.136c.187 2.255.516 4.493 1.54 6.56 1 2.022 2.577 3.28 4.895 3.606 1.596.225 3.194.22 4.757.216Zm-3.746-16.707c-.007.423-.013.845-.023 1.268-.049 1.382.034 2.763.116 4.134l.048.816c.026 1.141.207 2.274.537 3.369.09.352.294.666.579.896.286.23.64.364 1.009.381 1.39.139 2.781.12 4.171.1.483-.006.965-.012 1.448-.012 2.618.014 3.063-.382 3.455-2.917.03-.114.03-.23.03-.347.377-3.133.323-6.283.249-9.428-.042-1.648-.101-3.308-.516-4.924-.357-1.382-.846-1.793-2.28-1.81-1.993-.02-3.986-.02-5.978 0-1.455.014-2.01.451-2.307 1.866-.47 2.188-.504 4.401-.538 6.608Z" fill="#222"/></svg>