<svg width="256" height="72" fill="none" xmlns="http://www.w3.org/2000/svg"><path fill-rule="evenodd" clip-rule="evenodd" d="M139.344 32.163V28.202c0-.125.027-.194.156-.239 2.101-.773 4.201-1.55 6.298-2.331l1.434-.524v-.056l-.564-.218-5.672-2.153-1.532-.58a.163.163 0 0 1-.132-.182v-3.79a.93.93 0 0 1 .018-.129l.819.323c2.079.829 4.157 1.66 6.235 2.493l6.115 2.451c.366.147.366.15.366.535v2.715a.28.28 0 0 1-.044.186.278.278 0 0 1-.157.112l-.005.002h-.001c-1.498.598-2.995 1.195-4.508 1.792l-6.034 2.418-2.792 1.136Zm9.015 9.234v-.242h3.017v-3.252h-2.996V33.12l-.159.057a569.137 569.137 0 0 1-4.18 1.715.205.205 0 0 0-.147.23v2.533c0 .035-.004.07-.007.108-.004.041-.008.084-.008.13h-1.848v3.271h1.848v7.775c0 .472.032.943.096 1.411.089.74.38 1.441.842 2.027.55.65 1.3 1.1 2.133 1.282a8.423 8.423 0 0 0 2.999.174c.339-.036.677-.094 1.012-.152.169-.03.338-.058.505-.084V50.12a4.188 4.188 0 0 1-1.685.24 1.34 1.34 0 0 1-1.38-1.242 4.997 4.997 0 0 1-.042-.67v-7.05Zm-41.802 6.383h-4.046c-.048.212-.087.412-.123.598-.381 1.357-1.391 2.301-2.909 2.233a2.723 2.723 0 0 1-2.1-.98 4.098 4.098 0 0 1-.776-1.794 11.27 11.27 0 0 1-.16-2.482 6.747 6.747 0 0 1 .409-2.391c.462-1.193 1.355-2.036 2.75-2.054.951 0 1.731.335 2.198 1.196.175.364.315.743.42 1.133.042.135.081.185.231.185h4.079a24.787 24.787 0 0 1-.113-.562c-.072-.365-.14-.717-.238-1.06a5.522 5.522 0 0 0-1.616-2.635 6.226 6.226 0 0 0-2.913-1.464 8.675 8.675 0 0 0-4.942.257c-.97.344-1.85.902-2.573 1.633a6.799 6.799 0 0 0-1.602 2.588 9.971 9.971 0 0 0-.579 3.39 10.136 10.136 0 0 0 .774 4.37 6.319 6.319 0 0 0 3.719 3.494 9.025 9.025 0 0 0 5.776.15 5.776 5.776 0 0 0 2.999-2.045 6.474 6.474 0 0 0 1.248-3.007c.03-.19.049-.38.069-.572v-.003l.018-.178Zm90.336 1.401.041-.123.066-.194-.006-.107H193.065a.244.244 0 0 0-.279.182 2.628 2.628 0 0 1-1.382 1.522 3.53 3.53 0 0 1-1.743.299 2.766 2.766 0 0 1-2.342-1.289 4.412 4.412 0 0 1-.6-1.721c-.036-.21-.062-.429-.089-.658l-.01-.09-.018-.15h10.296v-2.107a8.993 8.993 0 0 0-.534-3.103 5.997 5.997 0 0 0-3.773-3.704 8.823 8.823 0 0 0-3.635-.442 7.092 7.092 0 0 0-4.213 1.631 7.05 7.05 0 0 0-2.364 3.84 11.995 11.995 0 0 0-.315 3.587 9.355 9.355 0 0 0 .615 3.106 6.344 6.344 0 0 0 3.962 3.814 9.408 9.408 0 0 0 5.383.227c2.139-.514 3.716-1.74 4.601-3.781.103-.241.186-.49.268-.738Zm-4.397-5.64c.015.12.03.24.047.361h-6.013c.213-1.106.534-2.14 1.499-2.837a2.978 2.978 0 0 1 3.474.138c.467.424.777.993.881 1.614.051.238.081.478.112.724Zm-124.03.152-.002.314c-.096 0-.165 0-.252.009-.336.008-.673.015-1.01.02-.808.016-1.617.03-2.42.081-1.061.065-2.1.332-3.06.786a4.428 4.428 0 0 0-2.477 2.69 5.825 5.825 0 0 0-.192 2.455c.058.767.335 1.502.799 2.117a4.036 4.036 0 0 0 1.82 1.354c.942.375 1.959.532 2.971.457a5.058 5.058 0 0 0 2.963-1.097c.251-.203.48-.434.708-.664.107-.109.215-.217.324-.323v1.75h4.307V43.333c0-.308-.003-.628-.033-.927-.186-2.017-1.167-3.467-3.08-4.244a9.165 9.165 0 0 0-3.575-.598 8.646 8.646 0 0 0-3.638.732 5.047 5.047 0 0 0-2.891 3.342 8.81 8.81 0 0 0-.16.74c-.023.12-.046.241-.071.363h4.244c.003-.027.008-.053.012-.078a.621.621 0 0 0 .015-.113 1.949 1.949 0 0 1 1.433-1.686 3.433 3.433 0 0 1 1.824 0 1.753 1.753 0 0 1 1.178.977c.279.591.271 1.213.264 1.85Zm-.188 3.25h.171v-.01c0 .193.004.385.008.576.008.436.016.865-.02 1.28a2.044 2.044 0 0 1-1.007 1.603 3.35 3.35 0 0 1-2.778.442 1.632 1.632 0 0 1-1.247-1.62 2.42 2.42 0 0 1 .147-1.052 1.832 1.832 0 0 1 1.397-1.029 7.294 7.294 0 0 1 1.299-.173c.675-.018 1.352-.018 2.03-.018Zm55.08-.081h-10.371c.023.537.107 1.07.252 1.587a3.337 3.337 0 0 0 1.02 1.686c.494.403 1.11.628 1.748.64a3.436 3.436 0 0 0 2.022-.437c.54-.327.947-.833 1.151-1.428.033-.09.066-.141.174-.141h3.899c.03 0 .057 0 .141.018-.038.126-.074.25-.109.375a7.108 7.108 0 0 1-.266.82 5.936 5.936 0 0 1-1.548 2.225 5.97 5.97 0 0 1-2.378 1.309 9.388 9.388 0 0 1-6.013-.057 6.304 6.304 0 0 1-2.393-1.434 6.274 6.274 0 0 1-1.536-2.323c-.387-.991-.6-2.04-.63-3.103a12.253 12.253 0 0 1 .267-3.411c.462-1.907 1.425-3.48 3.104-4.562a7.28 7.28 0 0 1 3.38-1.115 8.92 8.92 0 0 1 3.782.428 5.997 5.997 0 0 1 3.824 3.805c.33.953.498 1.954.495 2.962v1.935l-.015.22Zm-10.299-2.966h5.926a22.967 22.967 0 0 1-.042-.33c-.031-.25-.06-.49-.111-.728a2.901 2.901 0 0 0-.842-1.6 2.623 2.623 0 0 0-1.74-.657 2.698 2.698 0 0 0-2.399 1.118 4.893 4.893 0 0 0-.792 2.197Zm22.629 9.73h4.481v-10.6a7.925 7.925 0 0 0-.3-2.266c-.438-1.45-1.317-2.499-2.799-2.968a5.989 5.989 0 0 0-2.816-.162 4.854 4.854 0 0 0-3.599 2.392 1.887 1.887 0 0 1-.12.164v-2.28h-4.462v15.732h4.243c.234 0 .234 0 .234-.239v-9.33a4.43 4.43 0 0 1 .045-.69 2.475 2.475 0 0 1 1.482-2.057 3.218 3.218 0 0 1 2.003-.17 1.798 1.798 0 0 1 1.482 1.474c.084.36.126.727.126 1.097v9.903ZM154.094 37.9h4.48v10.134c.009.417.071.832.186 1.234a1.655 1.655 0 0 0 1.263 1.24c1.023.252 1.98.108 2.774-.633a2.697 2.697 0 0 0 .822-1.997c.01-.773.007-1.545.003-2.317-.001-.385-.003-.77-.003-1.156V37.917h4.472v15.515c0 .17-.042.224-.222.224h-4.181V51.38l-.15.227c-.115.176-.219.334-.333.484a4.775 4.775 0 0 1-3.41 1.856 5.739 5.739 0 0 1-2.999-.391 4.24 4.24 0 0 1-2.327-2.5 6.956 6.956 0 0 1-.417-2.498V38.136l.042-.236Zm-68.1 9.882h4.013a7.452 7.452 0 0 1-.428 2.093 5.825 5.825 0 0 1-1.64 2.46 5.852 5.852 0 0 1-2.64 1.342 8.925 8.925 0 0 1-5.663-.35 6.27 6.27 0 0 1-3.212-2.89 9.113 9.113 0 0 1-1.02-4.24c-.032-.88.03-1.76.187-2.627.5-2.478 1.769-4.385 4.138-5.455a7.837 7.837 0 0 1 3.3-.652 8.326 8.326 0 0 1 3.16.565c.9.345 1.698.911 2.319 1.647a5.672 5.672 0 0 1 1.23 2.559c.06.256.096.516.133.777l.04.278a.366.366 0 0 1 0 .108h-4.216a3.945 3.945 0 0 0-.495-1.375 2.351 2.351 0 0 0-2.175-1.127c-1.373.02-2.285.84-2.762 2.092a6.65 6.65 0 0 0-.387 2.215c-.05.901.01 1.804.177 2.69a3.637 3.637 0 0 0 1.056 2.033 2.877 2.877 0 0 0 4.535-1.073c.094-.216.163-.449.234-.689.037-.126.075-.253.117-.38Zm94.305-5.7c.13-.007.26-.016.391-.025v-4.343c-2.252-.018-3.859.96-4.774 3.034l-.036-.03v-2.816h-4.466v15.784h4.475v-8.003a5.876 5.876 0 0 1 .039-.726 2.809 2.809 0 0 1 1.379-2.197 4.874 4.874 0 0 1 1.974-.598c.337-.037.676-.058 1.018-.08Z" fill="#222"/></svg>