<svg width="325" height="72" fill="none" xmlns="http://www.w3.org/2000/svg"><path fill-rule="evenodd" clip-rule="evenodd" d="M116.779 43.587c2.038-2.035 3.058-4.934 3.058-8.697 0-3.496-.969-6.168-2.906-8.019-1.938-1.85-4.689-2.775-8.251-2.775H101V46.64h7.179c3.695 0 6.561-1.018 8.6-3.054Zm-4.372-13.077c.804.998 1.207 2.53 1.207 4.596 0 2.21-.426 3.853-1.275 4.926-.851 1.076-2.186 1.612-4.008 1.612h-1.335v-12.63h1.745c1.64 0 2.86.499 3.666 1.496Z" fill="#222"/><path d="M145.435 46.641h-5.713v-22.64h5.713v22.64Z" fill="#222"/><path fill-rule="evenodd" clip-rule="evenodd" d="M161.998 44.63c1.457-1.538 2.184-3.684 2.184-6.434 0-1.752-.338-3.284-1.015-4.593-.676-1.312-1.638-2.319-2.885-3.022-1.246-.702-2.684-1.054-4.309-1.054-2.63 0-4.673.76-6.13 2.278-1.457 1.519-2.184 3.65-2.184 6.391 0 2.681.743 4.808 2.229 6.382 1.484 1.573 3.484 2.36 5.997 2.36 2.62 0 4.658-.77 6.113-2.309Zm-7.968-3.133c-.38-.756-.57-1.857-.57-3.3 0-1.446.19-2.532.569-3.26.381-.726 1.007-1.091 1.884-1.091.897 0 1.529.367 1.9 1.1.37.731.555 1.814.555 3.25 0 1.444-.182 2.545-.547 3.301-.365.758-.992 1.136-1.878 1.136-.896 0-1.533-.378-1.913-1.136Z" fill="#222"/><path d="M172.164 46.641h-5.713V29.824h5.713V46.64ZM172.164 27.79h-5.714V24h5.714v3.79ZM186.501 41.771c-1.072.386-1.991.58-2.762.58-1.031 0-1.547-.544-1.547-1.633v-6.545h3.645v-4.348h-3.645v-5.288l-5.757.994v4.294h-2.001v4.348h2.001v6.932c0 1.979.424 3.445 1.269 4.4.849.954 2.232 1.433 4.15 1.433.935 0 1.752-.072 2.448-.216a11.13 11.13 0 0 0 2.199-.72v-4.23ZM199.724 41.771c-1.072.386-1.991.58-2.762.58-1.032 0-1.548-.544-1.548-1.633v-6.545h3.647v-4.348h-3.647v-5.288l-5.756.929v4.36h-2.002v4.347h2.002v6.932c0 1.979.424 3.445 1.271 4.4.847.954 2.23 1.433 4.148 1.433.937 0 1.751-.072 2.448-.216a11.11 11.11 0 0 0 2.199-.72v-4.23Z" fill="#222"/><path fill-rule="evenodd" clip-rule="evenodd" d="M209.212 29.527c2.493 0 4.419.662 5.777 1.982 1.359 1.32 2.038 3.223 2.038 5.707V39.8h-10.211c.039.94.378 1.677 1.015 2.212.638.534 1.507.8 2.608.8 1.004 0 1.927-.096 2.767-.29a12.194 12.194 0 0 0 1.846-.597l.878 3.79c-.891.46-1.81.78-2.759.956-.955.178-2.094.268-3.418.268-2.757 0-4.897-.746-6.422-2.235-1.523-1.488-2.287-3.61-2.287-6.36 0-2.84.707-5.018 2.119-6.538 1.413-1.518 3.429-2.278 6.049-2.278Zm-1.483 4.594c-.453.431-.718 1.106-.796 2.026h4.908c-.019-.81-.245-1.46-.679-1.943-.432-.487-1.014-.729-1.746-.729-.672 0-1.233.216-1.687.646ZM129.698 29.527c2.494 0 4.419.662 5.778 1.982 1.358 1.32 2.037 3.223 2.037 5.707V39.8h-10.211c.039.94.377 1.677 1.016 2.212.637.534 1.507.8 2.607.8 1.004 0 1.926-.096 2.768-.29a12.184 12.184 0 0 0 1.845-.597l.879 3.79a9.96 9.96 0 0 1-2.76.956c-.955.178-2.094.268-3.418.268-2.756 0-4.897-.746-6.421-2.235-1.525-1.488-2.288-3.61-2.288-6.36 0-2.84.708-5.018 2.12-6.538 1.412-1.518 3.427-2.278 6.048-2.278Zm-1.483 4.594c-.453.431-.718 1.106-.796 2.026h4.909c-.02-.81-.246-1.46-.68-1.943-.433-.487-1.015-.729-1.745-.729-.673 0-1.235.216-1.688.646Z" fill="#222"/><path d="M221.714 40.48c-1.813 0-3.286 1.46-3.286 3.26 0 1.8 1.473 3.26 3.286 3.26 1.815 0 3.286-1.46 3.286-3.26 0-1.8-1.471-3.26-3.286-3.26Z" fill="#222"/></svg>