<svg width="48" height="49" fill="none" xmlns="http://www.w3.org/2000/svg"><rect y=".5" width="48" height="48" rx="8" fill="#222"/><path d="M27.088 27.297c-.64-.676-1.764-1.109-3.091-1.109-1.328 0-2.452.433-3.092 1.109-.334.352-.51.714-.566 1.229-.108.997-.048 1.855.07 3.227a74.25 74.25 0 0 0 .597 4.828c.196 1.264.356 1.946.5 2.435.236.792 1.115 1.484 2.49 1.484 1.376 0 2.255-.693 2.49-1.484.145-.489.305-1.17.5-2.435a74.32 74.32 0 0 0 .599-4.828c.116-1.372.177-2.23.07-3.227a1.963 1.963 0 0 0-.567-1.23Zm-6.58-6.015a3.491 3.491 0 1 0 6.984 0 3.491 3.491 0 0 0-6.983 0ZM23.957 7.5c-8.164.023-14.854 6.65-14.955 14.816-.082 6.616 4.14 12.275 10.035 14.349a.2.2 0 0 0 .265-.219c-.077-.513-.15-1.03-.217-1.537a.516.516 0 0 0-.303-.407c-4.66-2.036-7.913-6.71-7.86-12.125.068-7.106 5.868-12.899 12.971-12.956 7.262-.06 13.189 5.833 13.189 13.084 0 5.36-3.24 9.978-7.863 11.998a.516.516 0 0 0-.302.407c-.067.507-.14 1.023-.217 1.536a.2.2 0 0 0 .265.219C34.803 34.611 39 29.04 39 22.505 39 14.218 32.247 7.477 23.956 7.5Zm-.27 6.884c4.628-.18 8.45 3.535 8.45 8.126a8.112 8.112 0 0 1-2.57 5.927.622.622 0 0 0-.195.488c.032.558.02 1.101-.017 1.714a.198.198 0 0 0 .308.175 10.05 10.05 0 0 0 4.393-8.304c0-5.675-4.725-10.266-10.446-10.045-5.316.207-9.582 4.592-9.65 9.914a10.049 10.049 0 0 0 4.393 8.436.197.197 0 0 0 .308-.176 14.38 14.38 0 0 1-.018-1.714.622.622 0 0 0-.195-.488 8.112 8.112 0 0 1-2.567-6.145c.112-4.262 3.547-7.743 7.806-7.908Z" fill="#fff"/></svg>