<svg width="256" height="72" fill="none" xmlns="http://www.w3.org/2000/svg"><path fill-rule="evenodd" clip-rule="evenodd" d="m92.472 30.875-1.658-.001h-1.503c-1.725.002-3.451.004-5.175-.012-.377 0-.48.104-.472.468a63.378 63.378 0 0 1 0 3.218c-.011.378.112.457.477.457 2.292-.01 4.584-.01 6.875-.008H93.541c.148-.002.23.024.2.211-.288 1.78-.827 3.462-2.154 4.782-3.003 2.987-6.678 3.725-10.71 2.77-4.492-1.062-7.655-4.697-8.189-9.264-.459-3.922.807-7.269 3.9-9.825 4.213-3.478 10.274-3.363 14.423.187.231.197.35.206.566-.012a91.13 91.13 0 0 1 2.43-2.374c.26-.24.215-.357-.026-.57-3.938-3.454-8.53-4.588-13.641-3.509-6.74 1.425-11.625 6.719-12.264 13.397-.51 5.323 1.548 9.725 5.79 13.075 3.943 3.117 8.502 4.017 13.42 3.044 3.992-.79 7.083-2.942 9.088-6.432 1.624-2.834 1.978-5.927 1.624-9.123-.04-.374-.164-.488-.552-.488a580.68 580.68 0 0 1-4.974.009Zm58.167 24.932c.237.034.475.068.688.193l2.39-.001c.076-.098.176-.094.276-.091.04.001.08.003.118-.003 3.332-.46 5.762-2.083 7.057-5.185.54-1.283.821-2.656.83-4.043.019-3.894.021-7.79.023-11.688.001-2.09.002-4.18.006-6.27 0-.262-.072-.343-.346-.343-1.146.016-2.292.022-3.439 0-.336-.006-.391.12-.391.401 0 .103.005.207.01.31v.001c.014.29.028.585-.064.884a.865.865 0 0 1-.153-.093c-2.079-2.044-4.599-2.476-7.348-1.801-4.048.992-7.028 4.59-7.349 8.738-.316 4.1 2.056 8.085 5.876 9.658 3.137 1.29 6.135 1.202 8.742-1.257a.68.68 0 0 0 .037-.038c.053-.058.11-.12.193-.06.048.033.06.136.06.207-.004.199-.005.398-.006.596a20.49 20.49 0 0 1-.046 1.549c-.231 2.861-2.167 4.653-5.092 4.686-2.347.026-3.959-1.137-5.01-3.117-.146-.274-.254-.31-.528-.193a84.342 84.342 0 0 1-3.078 1.252c-.342.13-.338.273-.197.544 1.364 2.62 3.436 4.385 6.391 5.102.114.028.232.045.35.062Zm6.086-14.17c-.966 1.204-2.298 1.776-3.87 1.786-2.676-.004-4.995-1.982-5.435-4.666-.345-2.117.101-4.039 1.692-5.579 2.649-2.568 6.777-1.9 8.359 1.404 1.173 2.45 1.006 4.876-.746 7.056Zm-46.909 5.629c-5.626 0-10.004-4.263-10-9.739.005-5.503 4.345-9.726 9.997-9.731 5.652-.006 9.999 4.224 10.001 9.724.002 5.486-4.369 9.744-9.998 9.746Zm.005-3.846a5.41 5.41 0 0 0 2.848-.788c2.197-1.325 3.227-4.017 2.579-6.695-.972-3.986-5.71-5.653-8.883-3.087-1.857 1.497-2.404 3.513-2.075 5.787.395 2.733 2.777 4.786 5.531 4.783Zm21.483 3.817c5.649.036 9.999-4.155 10.043-9.67.043-5.447-4.262-9.7-9.859-9.745-5.672-.045-10.039 4.129-10.093 9.616-.055 5.487 4.259 9.764 9.909 9.8Zm3.387-4.907c-.952.759-2.076 1.11-3.311 1.11-2.735 0-5.127-2.032-5.539-4.723-.358-2.342.19-4.41 2.133-5.934 3.207-2.517 7.954-.8 8.843 3.19.557 2.499-.037 4.69-2.126 6.357Zm45.896 4.928c-6.058.016-10.445-4.912-9.823-10.828.313-2.995 1.615-5.442 4.203-7.139 3.725-2.448 9.861-2.383 13.045 3.382.239.43.43.883.62 1.335.099.236.198.472.304.706.138.302.066.419-.237.54a2460.16 2460.16 0 0 0-10.467 4.23c-.192.078-.383.158-.575.238-.494.207-.989.413-1.495.59-.375.132-.35.273-.184.562 1.872 3.268 6.286 3.142 8.397 1.145.329-.293.626-.62.886-.974.163-.24.28-.3.554-.114a71.969 71.969 0 0 0 2.775 1.808c.296.187.236.31.068.535-1.888 2.531-4.825 3.986-8.071 3.983Zm-.258-15.715c-.071.006-.14.009-.205.012-.14.008-.269.015-.396.034a5.517 5.517 0 0 0-3.335 1.784 5.307 5.307 0 0 0-1.35 3.48c-.006.347.101.344.382.228 2.692-1.102 5.388-2.194 8.089-3.275.393-.156.435-.3.202-.626-.836-1.17-2.05-1.559-3.387-1.637Zm-11.451 3.842.001-2.946c-.008-4.616-.006-9.234.007-13.853.001-.346-.06-.486-.462-.476a95.415 95.415 0 0 1-3.434 0c-.307-.005-.403.078-.403.387.012.988.01 1.975.008 2.962l-.001 1.096c.005 7.868.003 15.736-.008 23.603-.001.388.062.538.509.523a59.354 59.354 0 0 1 3.29 0c.391.009.504-.087.504-.481-.012-3.608-.011-7.212-.011-10.815Z" fill="#222"/></svg>