<svg width="325" height="72" fill="none" xmlns="http://www.w3.org/2000/svg"><path d="M118 18v2.463h17.518V18H118Zm20 0v2.463h24.965S160.415 18 157.038 18H138Zm29.862 0v2.463h15.103L182.069 18h-14.207Zm25.931 0-.896 2.463h14.966V18h-14.07ZM118 22.79v2.463h17.518V22.79H118Zm20 .004v2.46h27.862s-.326-1.897-.893-2.46H138Zm29.862 0v2.46h16.759l-.83-2.46h-15.929Zm24.138 0-.829 2.46h16.692v-2.46H192Zm-68.966 4.786v2.467h7.587V27.58h-7.587Zm20.001 0v2.467h7.586V27.58h-7.586Zm14.966 0v2.467h7.587s.481-1.303.481-2.467h-8.068Zm14.895 0v2.467h13.451l-.896-2.467h-12.555Zm17.452 0-.9 2.467h13.518V27.58h-12.618Zm-67.314 4.794v2.463h7.587v-2.464h-7.587Zm20.001 0v2.463h19.378s1.621-1.264 2.137-2.464h-21.515Zm29.861 0v2.463h7.587v-1.372l.482 1.372h13.897l.517-1.372v1.372h7.587v-2.464h-14.242l-.756 2.087-.759-2.087h-14.313Zm-49.862 4.79v2.463h7.587v-2.464h-7.587Zm20.001 0v2.463h21.515c-.516-1.196-2.137-2.464-2.137-2.464h-19.378Zm29.861 0v2.463h7.587v-2.464h-7.587Zm8.965 0 .918 2.463h10.42l.872-2.464h-12.21Zm13.518 0v2.463h7.587v-2.464h-7.587Zm-72.345 4.79v2.462h7.587v-2.462h-7.587Zm20.001 0v2.462h7.586v-2.462h-7.586Zm14.966 0v2.462h8.068c0-1.162-.482-2.462-.482-2.462h-7.586Zm14.895 0v2.462h7.587v-2.462h-7.587Zm10.688 0 .889 2.462h6.986l.896-2.462h-8.771Zm11.795 0v2.462h7.587v-2.462h-7.587Zm-77.242 4.79v2.466h17.518v-2.467h-17.518Zm19.863 0v2.466h26.969c.567-.565.893-2.467.893-2.467H138Zm29.999 0v2.466h12.484v-2.467h-12.484Zm17.311 0 .914 2.466h3.554l.858-2.467h-5.326Zm10.069 0v2.466H208v-2.467h-12.621Zm-77.242 4.793V54h17.518v-2.463h-17.518Zm19.863 0v2.46h19.038c3.377 0 5.927-2.46 5.927-2.46H138Zm29.999 0V54h12.484v-2.463h-12.484Zm19.044 0 .879 2.456.151.003.893-2.459h-1.923Zm8.336 0V54H208v-2.463h-12.621Z" fill="#222"/></svg>