<svg width="32" height="32" fill="none" xmlns="http://www.w3.org/2000/svg"><circle cx="16" cy="16" r="16" fill="#00204D"/><path d="M16.898 16a7.855 7.855 0 0 1-5.583-2.345A8.06 8.06 0 0 1 9 8h2.972a5.068 5.068 0 0 0 1.456 3.553 4.94 4.94 0 0 0 3.507 1.474L16.898 16Z" fill="#FF93EE"/><path d="M23.056 16a7.855 7.855 0 0 1-5.582-2.345A8.06 8.06 0 0 1 15.158 8h2.972a5.068 5.068 0 0 0 1.456 3.553 4.94 4.94 0 0 0 3.508 1.474L23.055 16ZM16.898 16a7.855 7.855 0 0 0-5.583 2.345A8.06 8.06 0 0 0 9 24h2.972a5.068 5.068 0 0 1 1.456-3.553 4.94 4.94 0 0 1 3.507-1.474L16.898 16Z" fill="#FF93EE"/><path d="M23.056 16a7.855 7.855 0 0 0-5.582 2.345A8.06 8.06 0 0 0 15.158 24h2.972a5.068 5.068 0 0 1 1.456-3.553 4.94 4.94 0 0 1 3.508-1.474L23.055 16Z" fill="#FF93EE"/></svg>