<svg width="32" height="32" fill="none" xmlns="http://www.w3.org/2000/svg"><circle cx="16" cy="16" r="16" fill="#0A0104"/><path d="M19.725 15.685c.1.508.15 1.015.15 1.523v5.332c0 .076-.05.127-.125.127h-1.725c-.075 0-.125-.051-.125-.127v-5.103c0-.33-.025-.66-.075-.99a2.357 2.357 0 0 0-.25-.813 1.519 1.519 0 0 0-.525-.533 1.79 1.79 0 0 0-.95-.203c-.775 0-1.325.254-1.65.71a3.398 3.398 0 0 0-.5 1.905v5.001c0 .076-.05.127-.125.127H12.1c-.075 0-.125-.05-.125-.127v-4.773c0-.406-.025-.787-.075-1.193a2.77 2.77 0 0 0-.25-.888 1.402 1.402 0 0 0-.525-.559 1.657 1.657 0 0 0-.925-.203c-.275 0-.575.05-.825.178-.275.127-.5.279-.7.507-.225.254-.4.559-.5.889-.125.431-.2.863-.175 1.295v4.747c0 .076-.05.127-.125.127h-1.75c-.075 0-.125-.05-.125-.127v-9.14c0-.076.05-.126.125-.126h1.6c.075 0 .125.05.125.127v.99c.025-.051.075-.076.1-.127.175-.229.4-.406.625-.559a3.85 3.85 0 0 1 .9-.482 3.66 3.66 0 0 1 1.15-.203c.6-.026 1.225.127 1.75.457.425.279.8.66 1.05 1.117.275-.483.7-.863 1.175-1.117.525-.28 1.1-.432 1.675-.432.6-.025 1.225.102 1.775.356.45.228.825.558 1.1.964.3.406.475.864.575 1.346Zm2.725-.61c.075 0 .15-.025.2-.076.675-.457 1.3-.939 1.9-1.472.724-.686 1.45-1.625 1.45-2.894A2.082 2.082 0 0 0 23.974 8.5c-.624.025-1.174.355-1.524.889h-.025A1.871 1.871 0 0 0 20.9 8.5c-1.125.025-2.025.99-2.025 2.133 0 1.269.725 2.234 1.45 2.92.6.532 1.225 1.04 1.9 1.472.1.025.175.05.225.05Z" fill="#fff"/></svg>