<svg width="32" height="32" fill="none" xmlns="http://www.w3.org/2000/svg"><rect width="32" height="32" rx="16" fill="#051E29"/><path d="M10.34 19.807c0 .029 0 .06.002.089C8.93 17.53 8 15.13 8 13a8 8 0 0 1 9.189-7.913 9.434 9.434 0 0 1 1.629 4.495c-4.82.905-8.478 5.147-8.478 10.225Z" fill="#30CFE4"/><path d="M18.86 10.477c-.005 4.597-3.287 8.44-7.631 9.315.006-4.598 3.286-8.44 7.63-9.315Z" fill="#30CFE4"/><path d="M18.41 5.375a10.325 10.325 0 0 1 1.336 5.096c0 5.213-3.856 9.544-8.869 10.288 1.447 2.238 3.284 4.41 5.12 6.245 4-4 8-9.582 8-14a8.004 8.004 0 0 0-5.587-7.629Zm3.633 7.057c-.519.084-1.05-.536-1.188-1.384-.138-.848.17-1.603.69-1.687.517-.084 1.049.535 1.187 1.383.137.848-.171 1.604-.69 1.688Z" fill="#30CFE4"/></svg>