<svg width="48" height="48" fill="none" xmlns="http://www.w3.org/2000/svg"><rect width="48" height="48" rx="24" fill="#090E24"/><path d="m32.485 30.493-6.812 6.815a2.368 2.368 0 0 1-3.346 0l-6.812-6.815A12.006 12.006 0 0 1 24 10a11.997 11.997 0 0 1 11.087 7.41 12.008 12.008 0 0 1-2.602 13.083Z" fill="#30CFE4"/><path d="M28.395 18.905c0 2.415-1.967 4.373-4.393 4.373-2.427 0-4.394-1.958-4.394-4.373 0-2.416 1.967-4.374 4.394-4.374 2.426 0 4.393 1.958 4.393 4.374Z" fill="#080D23"/><path fill-rule="evenodd" clip-rule="evenodd" d="M24.002 21.168a2.269 2.269 0 0 0 2.274-2.263 2.269 2.269 0 0 0-2.274-2.264 2.269 2.269 0 0 0-2.274 2.264 2.269 2.269 0 0 0 2.274 2.263Zm0 2.11c2.426 0 4.393-1.958 4.393-4.373 0-2.416-1.967-4.374-4.393-4.374-2.427 0-4.394 1.958-4.394 4.374 0 2.415 1.967 4.373 4.394 4.373Z" fill="#fff"/><path fill-rule="evenodd" clip-rule="evenodd" d="m18.084 24.047.495.492c.85.844 2.435 1.877 4.367 2.177 1.9.294 4.178-.11 6.505-2.201l.518-.466.918 1.054-.519.466c-2.637 2.37-5.33 2.894-7.63 2.538-2.266-.35-4.106-1.548-5.127-2.562l-.495-.492.968-1.006Z" fill="#080D23"/></svg>