<svg width="48" height="48" fill="none" xmlns="http://www.w3.org/2000/svg"><rect width="48" height="48" rx="24" fill="#0B312F"/><path fill-rule="evenodd" clip-rule="evenodd" d="M33.804 34.23c-2.822 1.583-6.429.644-8.057-2.097l-3.143-5.29c.308.705.477 1.476.477 2.289 0 3.24-2.703 5.868-6.04 5.868S11 32.374 11 29.132c0-3.242 2.704-5.868 6.04-5.868 1.973 0 3.726.919 4.828 2.34l-2.302-3.872c-1.629-2.741-.663-6.245 2.16-7.827l.245-.136c2.821-1.582 6.428-.644 8.057 2.097l6.18 10.401c1.63 2.742.663 6.245-2.158 7.827l-.246.137Z" fill="#FFF0DE"/></svg>