<svg width="256" height="72" fill="none" xmlns="http://www.w3.org/2000/svg"><path fill-rule="evenodd" clip-rule="evenodd" d="m58.801 20.92.002.002A4443.95 4443.95 0 0 1 62.807 30l6.428-14.285a.28.28 0 0 1 .096.229v11.46a.779.779 0 0 1-.121.463c-.44.564-.912 1.108-1.795.995a1.54 1.54 0 0 0-.318.03v.76H74v-.802h-.66c-.66-.009-1.555-.835-1.555-1.447V15.266a.66.66 0 0 1 .064-.365c.443-.577.892-1.156 1.797-1.07.117.004.235-.003.35-.02v-.803h-.465c-.403 0-.807.003-1.21.006-.81.006-1.62.012-2.43-.006a.722.722 0 0 0-.479.094.64.64 0 0 0-.288.37c-1.76 3.928-3.522 7.858-5.288 11.792a2.905 2.905 0 0 1-.122.245l-.028.053-.066.127-.133-.297a12.831 12.831 0 0 1-.09-.202 6699.507 6699.507 0 0 1-5.02-11.807.488.488 0 0 0-.212-.293.552.552 0 0 0-.368-.082h-4.781v.805c.082.02.167.029.252.027.835-.119 1.326.357 1.772.9.118.15.185.33.191.517V27.36a.812.812 0 0 1-.102.466c-.433.57-.886 1.132-1.772 1.037a2.1 2.1 0 0 0-.357.024v.76h5.523v-.802h-.529a1.913 1.913 0 0 1-1.167-.5 1.678 1.678 0 0 1-.538-1.086V15.76c0-.047.005-.096.011-.145.006-.05.011-.101.011-.153h.08l2.401 5.438.002.002.007.017Zm35.044 1.432-1.927-2.522c.432-.453.858-.906 1.282-1.358 1.014-1.08 2.016-2.147 3.069-3.163l.05-.049.084-.081c.733-.71 1.51-1.464 2.715-1.356.01 0 .02-.01.03-.02.01-.012.02-.022.03-.022v-.754h-6.249v.842c.879-.231 1.36.24 1.75.875a.544.544 0 0 1-.07.757 3417.438 3417.438 0 0 0-5.798 6.298c-.038.039-.081.073-.142.123l-.042.034-.037.029-.024.02V15.58a1.706 1.706 0 0 1 .52-1.25 1.81 1.81 0 0 1 1.277-.509c.063 0 .126-.006.189-.011.061-.006.122-.01.18-.01V13h-6.723v.823h.422c.452.01.882.188 1.203.5.32.31.507.73.52 1.171v11.99a1.705 1.705 0 0 1-.519 1.19 1.779 1.779 0 0 1-1.22.502H84v.823h6.738v-.817h-.723c-.565-.018-1.446-.884-1.446-1.434v-4.123a.456.456 0 0 1 .065-.304c.448-.488.902-.968 1.365-1.457l.323-.342.048.063c.085.111.15.197.213.287 1.854 2.602 3.7 5.21 5.537 7.823a.69.69 0 0 0 .605.304H112.505v-.811c-.137-.015-.252-.015-.367-.015a1.583 1.583 0 0 1-1.042-.446 1.523 1.523 0 0 1-.46-1.019c0-.56.002-1.122.004-1.683.003-1.122.006-2.244-.004-3.366a1.324 1.324 0 0 1 .41-1.003 5.454 5.454 0 0 1 2.284-1.385c1.738-.535 2.793.191 2.793 1.95a202.74 202.74 0 0 1 0 5.515c-.024.3-.14.587-.332.823-.161.24-.393.425-.664.534-.271.108-.57.134-.856.074v.832H120v-.814c-.112-.018-.199-.018-.289-.018a1.567 1.567 0 0 1-1.055-.45 1.506 1.506 0 0 1-.45-1.036c-.001-.588 0-1.176.001-1.765.002-1.429.005-2.858-.02-4.287a2.902 2.902 0 0 0-.856-2.018 3.031 3.031 0 0 0-2.042-.88c-1.493-.089-2.642.525-3.666 1.488-.323.304-.646.61-1.012.963l-.097-.497-.003-.013c-.097-.491-.189-.953-.263-1.407-.04-.228-.13-.304-.379-.304h-3.224v.854h.347a1.6 1.6 0 0 1 1.093.46c.29.286.454.671.459 1.074 0 .686.003 1.374.006 2.063V23.459c.007 1.414.013 2.833-.006 4.252-.024.312-.142.61-.338.857a1.4 1.4 0 0 1-.606.506 1.432 1.432 0 0 1-.791.102 4.348 4.348 0 0 0-.621 0 1.625 1.625 0 0 1-1.056-.46 1.558 1.558 0 0 1-.467-1.035v-8.705h-4.035v.82h.568c.586.025 1.35.781 1.35 1.353v6.708a.98.98 0 0 1-.146.505c-.494.765-1.806 1.184-2.607.726a6.841 6.841 0 0 1-1.884-1.483c-1.015-1.227-1.975-2.496-2.935-3.765l-.001-.002c-.376-.496-.751-.993-1.13-1.486Zm84.858 20.815v-.814a3.29 3.29 0 0 1 .34-.034h2.859c.294 0 .383.11.426.37.076.477.164.955.256 1.456l.002.009.085.466.373-.367c.238-.234.459-.452.683-.67 1.007-.967 2.162-1.583 3.585-1.49 1.764.12 2.919 1.416 2.928 3.329.006 1.275.004 2.592.002 3.909l-.002 1.97c0 .409.157.802.439 1.094.281.293.665.462 1.068.472.077 0 .154 0 .253.025v.845h-5.7v-.836a1.632 1.632 0 0 0 1.488-.595 1.265 1.265 0 0 0 .371-.92c-.011-1.271-.007-2.542-.004-3.814.002-.635.004-1.27.004-1.906v-.476c-.112-1.209-.979-1.879-2.202-1.64a4.876 4.876 0 0 0-2.872 1.656 1.58 1.58 0 0 0-.334.939c-.023 1.298-.02 2.6-.017 3.902l.002 1.301c.019.395.181.77.455 1.05.274.282.641.45 1.03.475.118 0 .232 0 .371.019v.864h-9.539c-.09-.698-.182-1.412-.287-2.21l-.122.133-.001.001a5.824 5.824 0 0 0-.158.179 6.639 6.639 0 0 1-1.884 1.712c-1.445.817-3.131.438-3.974-.895a3.149 3.149 0 0 1-.46-2.278 3.117 3.117 0 0 1 1.226-1.965 6.282 6.282 0 0 1 2.498-.983l.488-.1a173.07 173.07 0 0 1 1.982-.404c.22-.043.346-.112.34-.378 0-.167.004-.334.009-.502a9.35 9.35 0 0 0-.009-1.005c-.065-1.252-.633-1.919-1.884-2.078a4.932 4.932 0 0 0-1.661.072c-.831.184-1.235.83-1.143 1.687.033.306.102.61.171.913.031.134.061.268.089.402-.643.138-.701.113-1.056-.432L168 43.747c.479-.39.987-.742 1.519-1.052a6.58 6.58 0 0 1 5.145-.313c1.414.485 2.128 1.565 2.128 3.08v5.877c.036.386.205.747.477 1.02.272.274.63.442 1.011.476.206-.013.412-.013.618 0 .728.1 1.179-.313 1.565-.848.1-.152.153-.33.152-.514v-6.912c0-.592-.772-1.369-1.384-1.403-.077 0-.152.002-.232.004h-.001c-.09.003-.185.005-.295.005Zm-3.977 4.409-.85.226c-.294.08-.579.156-.864.23-.609.144-1.205.337-1.782.58-.481.265-.84.712-1 1.242a2.145 2.145 0 0 0 .145 1.598c.488.939 1.612 1.186 2.652.604a4.608 4.608 0 0 0 1.563-1.475.63.63 0 0 0 .13-.313c.017-.61.013-1.216.009-1.844v-.037l-.003-.461v-.35Zm-73.574-5.22h-6.29l-.03.835.305.026c1.504.146 2.43 1.031 2.465 2.493 0 .761-.085 1.521-.253 2.265-.16.534-.364 1.056-.609 1.558a14.423 14.423 0 0 0-.164-.131c-.08-.064-.14-.11-.194-.162a1506.567 1506.567 0 0 0-7.004-6.588 1.958 1.958 0 0 0-.519-.358 3.928 3.928 0 0 1-1.953-1.714c-.688-1.325-.246-2.852 1.015-3.428a3.696 3.696 0 0 1 2.295-.296c1.966.396 3.15 1.614 3.71 3.484h.67v-4.238c-.356.121-.66.221-.96.311-.124.052-.257.08-.391.081a10.884 10.884 0 0 1-1.393-.218 7.843 7.843 0 0 0-3.2-.193c-1.848.309-2.962 1.459-3.167 3.257a5.199 5.199 0 0 0 1.137 3.851c.071.091.14.19.199.272v.001l.028.04c-.394.325-.77.67-1.127 1.034a7.163 7.163 0 0 0-.906 1.209c-1.204 2.054-1.069 4.587.359 6.233 1.255 1.427 2.855 2.044 4.776 2.02 2.119-.032 4.03-.58 5.612-2.017h.137c1.706 1.808 3.966 1.836 6.3 1.692v-.885c-.855.285-1.426-.162-1.986-.6l-.232-.179c-.15-.11-.301-.221-.445-.34a691.224 691.224 0 0 1-2.03-1.633c.025-.06.054-.12.087-.177a9.021 9.021 0 0 0 1.5-4.613 1.29 1.29 0 0 1 .215-.663c.075-.1.147-.203.22-.306v-.001c.427-.61.857-1.225 1.823-1.087v-.835Zm-14.889 7.018c-.861-1.686-.38-4.073.941-5.248l7.725 7.365a.559.559 0 0 1-.125.112c-3.205 1.963-6.905.981-8.54-2.229ZM134 43.041v-.756c.096-.017.193-.027.291-.032h2.83c.254 0 .363.062.406.323.066.41.162.817.27 1.277l.002.005.115.496c.065-.076.12-.143.17-.204.081-.1.148-.182.223-.256.118-.11.233-.223.347-.335h.001a8.01 8.01 0 0 1 .751-.681 3.933 3.933 0 0 1 1.639-.785 4.028 4.028 0 0 1 1.833.026c1.158.252 1.857.96 2.114 2.146l.149-.135.174-.158c.205-.187.402-.366.606-.546.839-.782 1.79-1.327 3.004-1.39 1.839-.094 3.217.981 3.304 2.738.054 1.131.046 2.265.039 3.397v.003c-.004.496-.007.992-.005 1.487 0 .099.003.198.005.296v.003c.006.194.011.385-.005.566-.074.746.368 1.206.96 1.552.249.093.511.149.777.166v.744h-5.611v-.729a.134.134 0 0 0 .033-.004c.017-.005.034-.012.052-.019.033-.013.065-.026.095-.021.653.092 1.071-.267 1.409-.714.142-.191.221-.418.229-.652.012-1.25.008-2.5.004-3.746v-.019c-.002-.622-.004-1.244-.004-1.865a3.01 3.01 0 0 0-.087-.744c-.217-.838-.991-1.286-1.975-1.14a4.596 4.596 0 0 0-2.654 1.38 1.213 1.213 0 0 0-.362.919c.01 1.136.007 2.272.003 3.407v.004c-.002.568-.003 1.135-.003 1.703-.002.19.035.378.109.553.073.176.183.336.321.472.139.135.304.243.486.317.182.075.378.114.576.116.09 0 .177 0 .291.02V53h-5.697v-.797c.28.057.571.03.835-.075.264-.106.488-.287.642-.518.18-.236.287-.517.309-.809.028-1.866.019-3.733 0-5.6 0-1.449-.907-2.157-2.378-1.831a4.161 4.161 0 0 0-2.381 1.437c-.204.268-.319.59-.328.921-.023 1.249-.02 2.499-.018 3.75l.002 1.252c-.005.194.03.386.104.566.074.18.185.345.327.483.141.138.311.248.497.322.187.074.387.112.59.11h.26v.777h-5.667v-.747a.653.653 0 0 1 .205-.038c.551.08.913-.21 1.257-.56.119-.117.211-.257.272-.41.061-.153.088-.316.081-.479v-6.166a1.464 1.464 0 0 0-.439-1.1 1.566 1.566 0 0 0-.522-.337 1.61 1.61 0 0 0-.618-.11.79.79 0 0 1-.234 0H134Zm20-.72v.84c.15 0 .281-.004.407-.006l.171-.004c.61.028 1.378.766 1.378 1.34.012 4.117.012 8.234 0 12.35a1.002 1.002 0 0 1-.203.572c-.366.475-.806.858-1.496.766a1.097 1.097 0 0 0-.235.03V59h6.101v-.803c-.134-.021-.228-.021-.321-.021a1.678 1.678 0 0 1-1.205-.464 1.523 1.523 0 0 1-.468-1.164v-4.464c0-.066.007-.13.013-.183l.005-.046.002-.034c.15.142.295.294.441.446h.001c.318.332.639.666 1.022.91 2.183 1.392 5.211.55 6.467-1.794 1.146-2.137 1.175-4.37.343-6.602-.468-1.262-1.345-2.223-2.739-2.587-1.894-.5-3.956-.09-5.221 1.899a3.783 3.783 0 0 1-.193.295l-.041.06-.023.033-.045.066-.109-.586-.001-.005-.001-.003c-.088-.462-.169-.886-.226-1.324-.035-.262-.154-.308-.395-.308H154Zm4.121 6.213c.003-.194.005-.401.005-.628a4.146 4.146 0 0 1 .7-2.98c.854-1.2 2.245-1.818 3.613-1.51 1.294.288 1.917 1.186 2.173 2.335a9.641 9.641 0 0 1-.041 4.428c-.424 1.741-1.654 2.59-3.391 2.423a3.403 3.403 0 0 1-2.135-.988 3.159 3.159 0 0 1-.919-2.1 19.671 19.671 0 0 1-.005-.978v-.002ZM122 49.093a7.25 7.25 0 0 1-1.209 2.166c-1.447 1.795-3.396 2.633-5.745 2.732-4.983.205-8.365-3.237-8.939-7.597-.296-2.275 0-4.472 1.167-6.499.793-1.433 2.066-2.575 3.619-3.244a8.044 8.044 0 0 1 4.955-.45c.355.072.708.151 1.061.23.504.114 1.008.227 1.516.32.249.057.509.059.758.005.25-.053.484-.161.683-.314.11-.084.281-.097.465-.111.088-.007.179-.014.268-.029v6.171h-.733a5.926 5.926 0 0 0-1.02-2.695c-.871-1.272-1.978-2.297-3.585-2.575-2.633-.455-5.185.449-6.016 3.574a15.95 15.95 0 0 0-.355 5.106c.022.797.126 1.59.31 2.368.753 2.785 3.148 4.428 6.175 4.35 1.545-.04 3.001-.333 4.122-1.423.475-.489.899-1.02 1.265-1.587l.019-.03c.378-.59.392-.611 1.219-.468Zm8.552 4.484c2.093-.87 3.382-2.99 3.448-5.585-.07-.639-.176-1.273-.32-1.899-.606-2.126-1.958-3.508-4.07-3.954-2.066-.436-3.879.147-5.27 1.83-1.162 1.404-1.469 3.078-1.294 4.887.074.88.349 1.73.8 2.481a5.541 5.541 0 0 0 1.798 1.841 5.298 5.298 0 0 0 4.908.399Zm1.263-6.212c.014.208.027.417.043.627h.012c-.028.29-.047.583-.067.879-.03.439-.059.882-.117 1.326-.178 1.147-.703 2.105-1.843 2.495-1.222.427-2.423.38-3.473-.509a3.351 3.351 0 0 1-1.068-2.133 12.278 12.278 0 0 1 .058-4.477c.244-1.204.874-2.136 2.111-2.451 1.237-.315 2.417-.206 3.379.776.484.518.779 1.194.836 1.912.06.518.094 1.035.129 1.555ZM140 19.8V19h5.808v.847c-.129.01-.258.01-.387 0a.888.888 0 0 0-.831.387 1.095 1.095 0 0 0-.336.632c-.038.244.006.494.124.708.563 1.259 1.096 2.533 1.642 3.836v.001l.005.01.002.005c.225.539.452 1.082.685 1.632l.081-.162v-.001l.001-.001v-.001c.041-.081.074-.147.102-.213.748-1.78 1.494-3.562 2.238-5.345.227-.542-.327-1.448-.907-1.482h-.566V19H152v.794c-1.128.071-1.615.93-2.011 1.82a2445.95 2445.95 0 0 0-6.098 14.032c-.032.07-.067.139-.108.22l-.067.134-1.013-.484.789-1.675.501-1.048c.502-1.049 1.004-2.096 1.491-3.157a.76.76 0 0 0 0-.574 1316.52 1316.52 0 0 0-3.255-7.212l-.27-.595a3.04 3.04 0 0 0-1.267-1.33A2.227 2.227 0 0 0 140 19.8Zm56.826 22.97V42H191v.766c.227.013.45.064.661.149a3.132 3.132 0 0 1 1.298 1.355c1.187 2.602 2.363 5.206 3.53 7.813a.69.69 0 0 1 0 .506 95.651 95.651 0 0 1-.917 1.946l-.001.001v.002c-.113.234-.226.468-.337.703l-.807 1.688-.758 1.587 1.01.484.031-.068.046-.096c.046-.098.089-.19.129-.283l1.597-3.645.002-.006.003-.006.002-.004c1.534-3.506 3.069-7.01 4.619-10.507.376-.819.885-1.535 1.892-1.622v-.76h-4.376v.828h.509c.68 0 1.247.93.983 1.551a6704.36 6704.36 0 0 1-2.214 5.273c-.027.063-.057.124-.092.198l-.07.146-.026.056-2.426-5.713a.665.665 0 0 1-.073-.183.836.836 0 0 1 0-.338c.089-.295.268-.552.511-.734.243-.182.538-.278.839-.274.088-.01.175-.024.261-.044ZM140 26.018c-.539 1.77-1.385 3.259-3.255 3.753-1.961.528-3.736.169-5.176-1.392-2.418-2.627-1.973-7.505.867-9.51a4.419 4.419 0 0 1 2.063-.834 4.373 4.373 0 0 1 2.2.284c1.559.59 2.269 1.876 2.421 3.508.094 1.021.067 1.023-.926 1.102l-.024.002-2.532.207c-1.184.097-2.369.194-3.558.287-.234.02-.304.094-.304.335.188 2.724 2.393 5.05 5.669 3.984a2.737 2.737 0 0 0 1.568-1.341.728.728 0 0 1 .703-.458c.098.004.195.03.284.073Zm-2.71-3.853c.031-.5.031-1.001 0-1.501a1.782 1.782 0 0 0-.314-.907 1.717 1.717 0 0 0-.733-.6 2.934 2.934 0 0 0-3.073.394c-.968.75-1.297 1.842-1.373 3.09l5.493-.476Zm-16.252 3.56v3.996a2.17 2.17 0 0 1 .222-.015c.142-.005.262-.009.322-.076.452-.446.965-.318 1.453-.198l.015.004c.233.058.463.133.693.208.255.084.51.168.77.227a3.998 3.998 0 0 0 3.021-.42c1.675-.987 2.135-4.005.207-5.468a7.173 7.173 0 0 0-1.255-.732c-.427-.197-.859-.383-1.291-.57-.483-.207-.966-.415-1.442-.64a3.777 3.777 0 0 1-1.024-.666 1.458 1.458 0 0 1-.102-1.935c.148-.182.338-.322.552-.407a2.603 2.603 0 0 1 1.685-.1c1.432.379 2.306 1.351 2.703 2.843h.6v-3.578l-.074.029-.205.078c-.163.062-.311.119-.459.172a.831.831 0 0 1-.361.097 11.891 11.891 0 0 1-.946-.18l-.093-.02a9.33 9.33 0 0 0-1.666-.372c-2.922-.088-3.67 2.12-3.259 4.03.226 1.016.961 1.654 1.802 2.085.481.247.973.47 1.465.691.369.167.738.333 1.103.51a10.05 10.05 0 0 1 1.537.854c.254.183.447.444.551.747.104.303.114.632.029.941-.135.657-.595.96-1.171 1.095-.495.128-1.01.149-1.512.06a3.59 3.59 0 0 1-1.407-.58 4.024 4.024 0 0 1-1.206-1.15 4.219 4.219 0 0 1-.656-1.56h-.601ZM84 26.003c-.606 1.977-1.648 3.468-3.717 3.871-2.068.403-3.874-.137-5.149-1.975-1.672-2.39-1.466-6.08.424-8.246 1.89-2.166 5.695-2.225 7.615-.05-.127.202-.252.406-.379.61v.002c-.384.621-.77 1.246-1.187 1.85-.069.098-.236.122-.426.15a2.715 2.715 0 0 0-.292.053c.037-.365.064-.65.088-.937.155-1.778-.909-2.756-2.61-2.416a2.577 2.577 0 0 0-1.166.49c-.344.26-.622.6-.81.995-.863 1.856-.954 3.75.04 5.58 1.032 1.904 3.656 2.616 5.482 1.504.442-.29.822-.67 1.118-1.116a.79.79 0 0 1 .417-.371.76.76 0 0 1 .552.006Zm18.43-12.555a1.505 1.505 0 0 0 .018 2.122A1.502 1.502 0 0 0 105 14.487a1.501 1.501 0 0 0-2.57-1.039Z" fill="#222"/></svg>