<svg width="105" height="86" fill="none" xmlns="http://www.w3.org/2000/svg"><path d="M3.013 136.056a.477.477 0 0 1 .208-.341l23.716-16.882 4.964-3.536a.487.487 0 0 1 .163-.075.46.46 0 0 1 .451.013l1.228.677a1.13 1.13 0 0 1 .082-.048l26.334-11.855 9.196-4.14 2.524-12.21a.396.396 0 0 1 .26-.315l3.308-1.54h.015c.244-5.873.486-11.745.728-17.617a.501.501 0 0 1 .037-.169c-.09-.496.22-.99.661-1.37h-.01c-1.36-.973-1.933-2.544-2.143-4.132-.141-1.073-.108-2.18-.212-3.26a36.617 36.617 0 0 0-.63-3.963 37.234 37.234 0 0 0-2.286-7.118c-.392-.921-.938-1.85-1.332-2.808-1.112-2.455-3.367-4.307-5.944-5.152-2.5 1.774-5.538 2.682-8.837 2.064l-.041-.013h-.018l-27.597-8.143-1.675-.495a.487.487 0 0 1-.159-.079 11.396 11.396 0 0 1-2.512-.93c-6.802-3.463-7.768-12.441-5.456-18.841 1.553-4.096 4.373-7.71 8.34-9.796 3.438-1.806 7.527-2.027 11.03-.298l25.485 9.315.197.074.025.012h.033c3.61 1.368 5.907 4.198 7.076 7.526l13.77 6.838c.016.01.033.02.048.031l12.303 5.092a5.453 5.453 0 0 1 3.057 2.485.567.567 0 0 1 .093.03l6.061 2.567c.86.279 1.602.825 2.115 1.557.035.007.07.018.104.032l4.685 1.986a.604.604 0 0 1 .072.038c1.408.554 2.128 1.782 2.281 3.105.489.03.979.007 1.463-.067 1.322-.18 2.628-.456 3.97-.44 2.661.03 5.189 1.754 6.709 3.802.8 1.08.967 2.513 1.019 3.802.065 1.585 0 3.185-.037 4.77a119.707 119.707 0 0 1-.629 9.328 126.722 126.722 0 0 1-1.34 9.269c-.514 2.826-1.118 5.579-2.487 8.147-2.39 4.474-6.668 7.76-10.982 10.353-3.246 1.953-6.684 3.588-10.126 5.177-3.302 1.525-6.612 3.06-10.001 4.391l3.286 3.861h.014l18.476 8.507a.46.46 0 0 1 .157.115.397.397 0 0 1 .134.354c-.36 3.928-.718 7.857-1.075 11.787a.483.483 0 0 1-.249.385.633.633 0 0 1-.083.061l-16.944 10.13-32.283 19.28-19.852 11.861-.232.139a.582.582 0 0 1-.133.055.414.414 0 0 1-.467-.023l-22.496-15.005-16.855-11.245a.647.647 0 0 1-.264-.418c-.166-2.18-.334-4.36-.502-6.54a.484.484 0 0 1 .011-.152Zm86.913-48.432a.392.392 0 0 1 .25.322.62.62 0 0 1 .03.129l1.177 12.119a157.752 157.752 0 0 0 16.213-7.453c4.57-2.389 9.21-5.23 12.24-9.462 1.61-2.243 2.396-4.727 2.941-7.393.62-3.047 1.097-6.123 1.459-9.209.363-3.085.589-6.207.72-9.322.059-1.495.083-2.991.085-4.488 0-1.335.139-2.847-.785-3.943-1.469-1.743-3.487-2.386-5.709-2.072-1.422.192-2.877.486-4.271.348-.696 1.306-2.007 2.203-3.762 1.872l-.049-.014a.614.614 0 0 1-.129-.013l-5.774-1.355a4.317 4.317 0 0 1-1.712-.013h-.025a.635.635 0 0 1-.106-.014l-6.882-1.62a.49.49 0 0 1-.179-.08 5.6 5.6 0 0 1-3.261.339c-3.47 4.424-2.898 10.478-3.746 15.764-.286 1.78-.865 3.628-2.326 4.657.453.36.773.818.753 1.301v.04l-.831 17.872 3.679 1.688Z" fill="#fff" stroke="#fff" stroke-miterlimit="10"/><path d="M40.981 24.9c-2.463 4.36-6.238 7.26-10.355 7.957a10.544 10.544 0 0 1-4.615-.233.763.763 0 0 1-.392-.337.36.36 0 0 1 0-.363c.146-.235.589-.252.9-.264h.175c2.47 0 5.001-.927 7.131-2.608 3.554-2.81 5.936-7.104 6.537-11.783.615-4.81-.705-9.176-3.53-11.663l-.03-.023c-.016-.016-.033-.03-.05-.048l-.019-.018a.68.68 0 0 1-.05-.057.673.673 0 0 1-.122-.672.441.441 0 0 1 .557-.179c.035 0 .07.023.106.035l.068.023h.02a11.246 11.246 0 0 1 5.06 6.046c1.612 4.494 1.094 9.796-1.39 14.188Z" fill="#fff"/><path d="M57.637 41.617c-.63 0-1.257-.059-1.875-.175a.213.213 0 0 1-.065 0l-.635-.192a.782.782 0 0 1-.273-.208.41.41 0 0 1 0-.514l.016-.023.026-.013c4.283-1.997 7.636-6.317 8.974-11.554a.345.345 0 0 0-.059-.315.445.445 0 0 0-.347-.17.344.344 0 0 0-.224.072.332.332 0 0 0-.123.198c-1.483 5.81-5.456 10.313-10.365 11.752a.36.36 0 0 0-.041.017l-.055.021-.877-.258h-.023a.602.602 0 0 1-.322-.398.363.363 0 0 1 .138-.302c.03-.029.066-.056.1-.083l.037-.025c4.314-1.98 7.684-6.31 9.03-11.58a.35.35 0 0 0-.058-.318.447.447 0 0 0-.349-.161.345.345 0 0 0-.225.072.333.333 0 0 0-.122.199c-1.196 4.678-4.632 10.244-10.696 11.84l-.05.018-.715-.212-.024-.01a.626.626 0 0 1-.32-.357.505.505 0 0 1 .238-.49l.022-.013c4.377-1.954 7.805-6.307 9.168-11.644a.354.354 0 0 0-.059-.317.444.444 0 0 0-.349-.162.346.346 0 0 0-.225.073.334.334 0 0 0-.122.199c-1.188 4.65-4.603 10.195-10.618 11.82a.375.375 0 0 0-.102.043l-.025.012c-.083.019-.165.036-.25.05h-.044l-.805-.239-.025-.012a.514.514 0 0 1-.11-.09c-.249-.271 0-.55.077-.64l.013-.018.022-.01c4.538-1.877 8.086-6.28 9.49-11.778a.352.352 0 0 0-.059-.318.447.447 0 0 0-.349-.161.345.345 0 0 0-.225.073.333.333 0 0 0-.122.198c-1.206 4.719-4.675 10.313-10.786 11.86-.197.034-.393.07-.614.094h-.02l-.13-.037-.462-.138h-.024a.458.458 0 0 1-.237-.3.489.489 0 0 1 .18-.452l.03-.02c4.565-1.794 8.28-6.348 9.692-11.867a.35.35 0 0 0-.059-.317.45.45 0 0 0-.349-.162.346.346 0 0 0-.225.073.334.334 0 0 0-.122.198c-1.26 4.93-4.903 10.667-11.324 11.98a.526.526 0 0 0-.094.03l-.03.01-.162.025h-.022l-.745-.222-.018-.015a.453.453 0 0 1-.153-.365.457.457 0 0 1 .218-.345h.022c4.683-1.731 8.487-6.315 9.93-11.96a.351.351 0 0 0-.058-.317.445.445 0 0 0-.349-.162.346.346 0 0 0-.225.073.334.334 0 0 0-.122.199c-1.602 6.27-6.103 10.982-11.47 12.008a7.05 7.05 0 0 1-.55.069H35.341l-3.236-.962a5.793 5.793 0 0 1-.392-.221.704.704 0 0 1-.336-.476.356.356 0 0 1 .151-.305.871.871 0 0 1 .151-.095h.02c3.51-.904 6.905-3.383 9.084-6.633 2.665-3.976 3.805-8.77 3.138-13.156a14.825 14.825 0 0 0-2.487-6.313l-.012-.018c-.196-.446-.164-.729.07-.844.212-.093.447-.123.675-.087l7.953 2.907 12.757 4.669.055.02c3.938 1.492 5.746 4.733 6.57 7.19a16.87 16.87 0 0 1 .153 9.893c-1.51 5.1-5.913 10.596-12.018 10.594Z" fill="#FF490C"/><path d="M72.644 42.656h.122a2.949 2.949 0 0 1 1.265.32 5.22 5.22 0 0 1 1.455 1.154 15.88 15.88 0 0 1 1.457 2.106c.132.287.27.577.41.856.106.22.212.437.316.658a37.454 37.454 0 0 1 2.793 8.428c.318 1.54.535 3.1.649 4.667.03.413.043.837.055 1.246.006.736.059 1.47.159 2.2a4.6 4.6 0 0 0 .537 1.538v.017c.03.087.053.174.074.262a.505.505 0 0 1-.07.464.483.483 0 0 1-.392.163.892.892 0 0 1-.483-.152 2.288 2.288 0 0 1-.323-.26c-.042-.053-.083-.107-.12-.167a5.066 5.066 0 0 1-.706-2.464v-.025c-.104-1.85-.196-3.597-.475-5.386a.286.286 0 0 0-.011-.049V58.195a.217.217 0 0 0-.053-.151.225.225 0 0 0-.144-.077l-.412-.092-1.678-.385a.27.27 0 0 0-.269.088.313.313 0 0 0-.065.254v.093c.153 1.06.22 2.145.285 3.191.056 1.238.183 2.471.378 3.695.016.099.034.193.051.295l.014.075v.015a.412.412 0 0 1-.124.308.264.264 0 0 1-.176.063.722.722 0 0 1-.433-.217c-1.005-1.154-1.095-2.797-1.177-4.255a38.219 38.219 0 0 0-.953-6.718 37.83 37.83 0 0 0-1.908-5.902 39.509 39.509 0 0 0-.548-1.236l-.353-1.022c-.04-.121-.086-.244-.131-.37-.22-.61-.47-1.302-.486-1.975.139-.798.633-1.216 1.47-1.216Zm.26 2.663a42.381 42.381 0 0 1 3.1 8.298.224.224 0 0 0 .08.14.232.232 0 0 0 .155.053.317.317 0 0 0 .241-.112.246.246 0 0 0 .044-.219 42.997 42.997 0 0 0-3.164-8.434.202.202 0 0 0-.077-.095.209.209 0 0 0-.119-.035.325.325 0 0 0-.255.146.258.258 0 0 0-.006.258ZM79.5 38.682c-2.024 1.689-4.654 2.581-7.603 2.581a15.008 15.008 0 0 1-4.73-.78 3.17 3.17 0 0 1-.73-.462c-.328-.348-.606-.862-.412-1.256.027-.058.059-.116.088-.175l.018-.026a16.91 16.91 0 0 0 4.277-7.342 18.54 18.54 0 0 0 .367-8.141v-.038c.025-.518.392-.751 1.002-.636l.067.016.06.011 10.187 5.056.041.077c.041.077.082.152.131.236 1.532 3.607.34 8.288-2.763 10.879ZM95.235 45.19a1.99 1.99 0 0 1-.416.048 1.164 1.164 0 0 1-.392-.062c-.38-.136-.546-.398-.463-.74v-.025l.018-.018c1.3-1.389 2.606-2.922 3.018-5.028a9.385 9.385 0 0 0-.236-4.702v-.046a.97.97 0 0 1 .05-.17.385.385 0 0 1 .142-.188.397.397 0 0 1 .228-.073c.218.027.425.107.602.233l.024.015c.025.014.048.03.07.049 1.277 1.238 1.765 3.2 1.322 5.386-.484 2.449-2.037 4.538-3.967 5.32Z" fill="#fff"/><path d="M103.778 46.921a3.49 3.49 0 0 1-.688-.07.386.386 0 0 0-.079-.009l-.867-.204-3.128-.737h-.02c-.784-.375-1.125-.933-.937-1.573.034-.116.07-.227.108-.337l.051-.154.016-.029a8.935 8.935 0 0 0 1.804-6.486c.029-.47.218-.706.573-.706.062 0 .123 0 .196.013l.143.025h.02c1.393.593 2.788 1.183 4.185 1.772l.055.017h.023a.435.435 0 0 0 .09.043c2.111.713 2.53 2.885 2.25 4.543-.324 1.876-1.646 3.892-3.795 3.892ZM93.115 44.2c-.822.855-1.67 1.73-2.281 2.777-1.167 1.981-1.88 4.309-2.248 7.325-.117.98-.196 1.991-.262 2.969-.142 1.923-.287 3.926-.785 5.815-.52 1.997-1.388 3.103-2.66 3.38-.189.043-.383.065-.578.065-1.131 0-1.96-.844-2.186-2.204a18.483 18.483 0 0 1-.171-2.293 28.232 28.232 0 0 0-.077-1.518A38.15 38.15 0 0 0 78.9 48.614a29.352 29.352 0 0 0-.643-1.324c-.435-.85-.885-1.73-1.102-2.637-.33-1.373.16-3.1 1.192-4.201l.022-.02a9.998 9.998 0 0 0 1.896-1.398c2.652-2.487 3.905-6.187 3.267-9.655v-.021c.022-.48.253-.743.65-.743a.596.596 0 0 1 .082 0c.17.017.337.046.502.087l10.378 4.297.042.023.013.039c.01.023.022.046.036.067 1.457 2.42 1.61 5.514.392 7.887-.64 1.228-1.593 2.222-2.512 3.184Zm-9.479 20.648a1.209 1.209 0 0 0 .903.385h.021c1.461-.02 2.09-1.818 2.146-2.947.029-.666-.09-2.116-.771-2.809a1.21 1.21 0 0 0-.902-.385h-.022c-1.686.025-2.067 2.266-2.141 2.947-.034.666.086 2.109.766 2.809Zm-2.569-21.62a.396.396 0 0 0-.247.108.381.381 0 0 0-.117.24.346.346 0 0 0 .051.259c.051.076.13.13.221.15l7.088 1.936a.412.412 0 0 0 .115.017.396.396 0 0 0 .247-.109.382.382 0 0 0 .116-.24.348.348 0 0 0-.052-.258.36.36 0 0 0-.22-.15l-7.086-1.936a.412.412 0 0 0-.116-.017ZM86.148 69.163l-.82 17.634a.293.293 0 0 0 0 .085v.027l-.01.025a.379.379 0 0 0-.027.104c-.076.61-1.288.89-1.686.983-.808.186-1.634.281-2.463.283h-.371a10.495 10.495 0 0 1-2.816-.408l-.112-.035c-.508-.157-1.455-.45-1.502-1.033V86.8c0-.123 0-.246-.014-.384v-.039c.24-5.771.477-11.542.714-17.313v-.17l.145.091c1.057.668 2.55 1.014 4.424 1.03 1.332.01 3.126-.032 4.368-.753l.17-.098Z" fill="#FF490C"/><path d="M84.839 59.537c.101 0 .201.02.296.055 1.055.385 1.176 1.938 1.082 2.709-.07.644-.498 2.487-1.482 2.487a.866.866 0 0 1-.298-.055c-.785-.278-1.151-1.212-1.083-2.709.07-.645.496-2.487 1.485-2.487Z" fill="#fff"/><path d="M39.454 18.066c-1.03 5.193-4.019 9.543-8 11.63a10.265 10.265 0 0 1-4.728 1.197 8.113 8.113 0 0 1-3.591-.785 7.956 7.956 0 0 1-2.852-2.282c-2.731-3.45-3.235-8.635-1.347-13.866 1.49-3.924 4.034-6.989 7.164-8.631a10.455 10.455 0 0 1 4.807-1.24 7.734 7.734 0 0 1 4.534 1.392c4.21 2.966 4.793 8.626 4.013 12.585Zm-3.903 1.22-.141.036.018-.14c.017-.15.039-.297.06-.443.077-.435.11-.875.096-1.316a2.69 2.69 0 0 0-.196-.77c-.027-.076-.054-.151-.08-.229l-.035-.107.113-.018a3.253 3.253 0 0 1 1.095.012.298.298 0 0 0 .233-.058.288.288 0 0 0 .11-.21.202.202 0 0 0-.044-.162.209.209 0 0 0-.152-.076 3.707 3.707 0 0 0-1.328 0l-.121.02v-.122c.002-.07.012-.14.027-.208.014-.077.031-.155.049-.236.105-.366.142-.747.11-1.126a4.24 4.24 0 0 0-.206-.742 8.556 8.556 0 0 1-.118-.335l-.035-.111.116-.014c.408-.05.833-.084 1.263-.104a.278.278 0 0 0 .193-.09.268.268 0 0 0 .07-.198.23.23 0 0 0-.155-.23.241.241 0 0 0-.099-.015c-.5.023-.953.06-1.384.11l-.106.014v-.104a1.22 1.22 0 0 1 0-.149c.014-.165.041-.342.069-.511.082-.376.1-.762.053-1.143a5.21 5.21 0 0 0-.197-.617c-.029-.081-.056-.164-.084-.247l-.037-.111.12-.014c.321-.04.647-.04.968 0a.2.2 0 0 0 .166-.04.193.193 0 0 0 .072-.152.305.305 0 0 0-.064-.22.317.317 0 0 0-.2-.117 4.197 4.197 0 0 0-1.064 0l-.108.014V8.9a1.322 1.322 0 0 1 .059-.452.218.218 0 0 0-.03-.21.299.299 0 0 0-.239-.11.258.258 0 0 0-.162.052.25.25 0 0 0-.093.14 1.82 1.82 0 0 0-.072.72v.081l-.08.021c-.422.108-.832.25-1.266.402l-.22.075c-.195.07-.403.139-.61.193l-.11.034-.015-.113a6.149 6.149 0 0 1 .047-1.637.197.197 0 0 0-.043-.166.311.311 0 0 0-.498.193 6.158 6.158 0 0 0-.04 1.762l.017.092-.095.018a3.69 3.69 0 0 1-.42.053c-.105.01-.211.016-.321.022a4.645 4.645 0 0 0-1.05.14l-.03.015h-.107l-.015-.075a6.486 6.486 0 0 1-.104-1.839.227.227 0 0 0-.053-.173.297.297 0 0 0-.43.046.285.285 0 0 0-.056.147c-.07.681-.029 1.37.123 2.039l.022.082-.08.031c-.246.096-.489.193-.73.298-.42.175-.851.356-1.295.508l-.1.033-.039-.14c-.021-.08-.043-.158-.063-.24a8.236 8.236 0 0 1-.182-2.115.242.242 0 0 0-.065-.175.282.282 0 0 0-.295-.06.272.272 0 0 0-.18.238 7.883 7.883 0 0 0 .138 1.99c.047.192.1.373.153.556l.027.094-2.176.52-.026-.09a2.587 2.587 0 0 1-.118-1.276.258.258 0 0 0-.05-.224.32.32 0 0 0-.244-.111.216.216 0 0 0-.151.052.208.208 0 0 0-.072.14 3.036 3.036 0 0 0 .123 1.54l.026.095-.516.123-.516.124a.234.234 0 0 0-.148.094.226.226 0 0 0-.038.17.264.264 0 0 0 .11.197.278.278 0 0 0 .225.046l1.016-.238.016.106a4.59 4.59 0 0 1-.085 1.471c-.021.123-.043.25-.062.385-.035.23-.044.461-.028.693v.069l-.065.027c-.245.1-.49.217-.73.333-.278.132-.566.27-.854.384l-.1.039-.08-.268c-.197-.654-.414-1.33-.171-2.06a.218.218 0 0 0-.024-.208.307.307 0 0 0-.241-.11.265.265 0 0 0-.163.053.258.258 0 0 0-.096.14c-.26.787-.06 1.49.15 2.234.027.09.052.182.078.275l.027.102-.104.019c-.247.044-.5.053-.749.025a.213.213 0 0 0-.222.118.201.201 0 0 0-.02.086.296.296 0 0 0 .066.216c.05.06.12.1.2.11.278.033.56.02.833-.042l.108-.023.01.108c.028.427.008.856-.06 1.28a6.7 6.7 0 0 0-.068 1.05v.075l-.072.02a6.79 6.79 0 0 1-.961.205.312.312 0 0 0-.2.113.3.3 0 0 0-.065.218.19.19 0 0 0 .072.153.199.199 0 0 0 .167.039 6.91 6.91 0 0 0 1.03-.223l.102-.03.021.101c.057.246.13.494.197.733.043.144.084.29.123.437.082.314.128.637.14.962v.094h-.099l-.241.013a6.32 6.32 0 0 0-1.053.112.232.232 0 0 0-.154.088.22.22 0 0 0-.042.17.273.273 0 0 0 .109.2.284.284 0 0 0 .226.052c.357-.07.72-.107 1.083-.108h.178v.238c.032.452.113.899.241 1.334.05.192.098.384.138.577l.023.105h-.108a4.01 4.01 0 0 1-1-.013.317.317 0 0 0-.317.168.302.302 0 0 0-.032.12.188.188 0 0 0 .043.148.195.195 0 0 0 .14.07c.412.058.83.064 1.245.02l.102-.012v.102c.017.243-.001.487-.055.725a.26.26 0 0 0 .047.223.318.318 0 0 0 .245.111.222.222 0 0 0 .152-.052.214.214 0 0 0 .076-.14c.07-.316.08-.642.033-.962l-.012-.088.09-.02c.208-.04.432-.092.7-.165.36-.098.728-.192 1.126-.258l.092-.017.022.09c.069.273.09.556.063.835-.051.543-.03.914.23 1.318a.245.245 0 0 0 .217.123.328.328 0 0 0 .268-.152.215.215 0 0 0-.017-.235c-.243-.384-.196-.769-.15-1.154a2.181 2.181 0 0 0 0-.77l-.037-.153.106-.014c.55-.075 1.104-.125 1.7-.153.105 0 .197-.014.31-.023l.11-.01v.102c.005.345-.016.69-.06 1.033-.048.476.047.956.274 1.38a.192.192 0 0 0 .07.094.2.2 0 0 0 .113.038.33.33 0 0 0 .253-.146.28.28 0 0 0 .021-.272c-.24-.532-.196-1.056-.14-1.562.022-.219.044-.446.044-.673v-.08l.08-.016c.612-.119 1.216-.27 1.81-.454l.122-.037v.125c-.01.721.086 1.44.284 2.134a.256.256 0 0 0 .096.14.264.264 0 0 0 .163.052.311.311 0 0 0 .24-.11.215.215 0 0 0 .023-.207 6.155 6.155 0 0 1-.231-1.943v-.354l.07-.021a12.855 12.855 0 0 1 1.81-.425l.112-.016v.11c.012.721.047 1.37.361 1.987.017.038.044.07.078.094a.22.22 0 0 0 .118.037.323.323 0 0 0 .257-.148.256.256 0 0 0 0-.262c-.286-.56-.257-1.127-.227-1.677l.01-.193h.09c.353-.01.707.01 1.057.062a.316.316 0 0 0 .316-.165.3.3 0 0 0 .033-.12.19.19 0 0 0-.106-.2.199.199 0 0 0-.078-.021 9.303 9.303 0 0 0-1.224-.106h-.083l-.013-.08v-.043a5.01 5.01 0 0 0-.22-.916 4.407 4.407 0 0 1-.233-1.094v-.098h.1a5.09 5.09 0 0 0 1.765-.283l.3-.127.139-.054v.135c.213.699.31 1.427.286 2.156a1.357 1.357 0 0 0 .338 1.06.239.239 0 0 0 .23.074.24.24 0 0 0 .178-.16.267.267 0 0 0-.04-.303c-.255-.303-.196-.727-.157-1.137.04-.224.046-.453.016-.678-.043-.193-.104-.385-.16-.578-.07-.227-.14-.46-.197-.696l-.016-.08.08-.03a2.314 2.314 0 0 1 1.107-.14.319.319 0 0 0 .318-.168.303.303 0 0 0 .027-.198.191.191 0 0 0-.1-.118.198.198 0 0 0-.076-.02 3.05 3.05 0 0 0-1.236.096Z" fill="#FF490C"/><path d="m23.753 18.306-.065.021c-.392.13-.784.289-1.176.44-.242.095-.483.193-.726.281l-.14.052v-.146c.01-.192.028-.398.046-.598.052-.437.066-.877.043-1.316a3.343 3.343 0 0 0-.053-.352l-.014-.075.073-.03c.196-.087.392-.193.588-.282a8.68 8.68 0 0 1 .943-.417l.102-.037.026.102c.04.158.082.302.13.443.18.598.251 1.224.21 1.847l.013.067ZM24.303 24.104l.096.235-.107.029c-.197.05-.393.105-.589.161a15.44 15.44 0 0 1-1.133.289l-.093.019-.08-.306a5.81 5.81 0 0 1-.23-1.293c0-.192-.013-.363-.021-.536v-.087l.086-.013c.14-.02.28-.05.416-.089l.298-.09c.32-.098.653-.193.98-.28l.138-.032-.018.139c-.082.41-.073.835.026 1.242.067.216.15.418.231.612ZM24.12 21.49v.077l-.077.015c-.332.07-.661.165-.98.26-.197.056-.375.111-.566.161-.098.025-.196.045-.292.064l-.106.019v-.106a8.571 8.571 0 0 0-.302-1.625 3.715 3.715 0 0 1-.122-.664v-.073l.071-.025c.222-.083.443-.17.663-.256.392-.154.785-.312 1.202-.442l.134-.043v.181c-.031.35-.012.701.058 1.045.034.13.079.263.124.402.118.324.183.665.192 1.01ZM29.499 20.126c-.02.122-.033.245-.04.37v.05l-.044.024a5.148 5.148 0 0 1-1.85.67l-.12.019v-.117a3.507 3.507 0 0 0-.102-1.109 5.692 5.692 0 0 1-.256-1.494v-.081l.08-.015c.41-.1.81-.236 1.196-.405l.044-.017c.232-.092.47-.164.715-.217l.1-.023.018.1c.033.192.076.367.118.544.162.552.21 1.13.14 1.7ZM29.16 17.104v.07l-.071.022c-.071.02-.143.042-.214.067l-.494.193a9.918 9.918 0 0 1-1.146.406l-.133.023.012-.137c0-.044 0-.086.014-.129.096-.833-.053-1.389-.26-2.158l-.054-.193.09-.027c.23-.068.454-.154.67-.257.394-.195.798-.368 1.21-.518l.095-.032.031.094c.047.138.098.28.155.43.218.564.177 1.043.131 1.553-.02.195-.037.4-.037.593ZM28.746 13.812l.01.077-.075.025a4.524 4.524 0 0 0-.523.204l-.293.137c-.337.16-.655.31-.98.436l-.136.052v-.14c.007-.264.029-.527.065-.789a5.81 5.81 0 0 0 .063-.962 3.92 3.92 0 0 0-.17-.925l-.024-.088.088-.03c.606-.192 1.177-.442 1.765-.696l.322-.136.02.123c.11.673 0 1.285-.109 1.995a2.67 2.67 0 0 0-.023.717ZM31.79 16.85v.086l-.089.018a4.79 4.79 0 0 1-.884.086c-.324 0-.657 0-.98.03h-.11v-.109c0-.073 0-.144.011-.217.087-.737.088-1.314-.165-1.91a4.068 4.068 0 0 1-.154-.458l-.026-.096.1-.021a5.14 5.14 0 0 1 .445-.081 9.771 9.771 0 0 0 1.581-.333l.096-.03.027.097c.11.356.175.724.197 1.095a7.29 7.29 0 0 1-.041.829 5.619 5.619 0 0 0-.008 1.014ZM31.432 12.739c.006.152.025.303.055.452l.016.088-.088.023c-.377.097-.763.17-1.14.239-.274.052-.559.106-.833.167l-.118.027v-.117c0-.436.045-.871.133-1.299.095-.48.081-.974-.04-1.448l-.024-.093.078-.023c.434-.104.875-.18 1.32-.225.169-.02.335-.042.502-.067l.085-.012.023.08c.123.456.145.934.063 1.4-.03.268-.041.538-.032.808ZM34.364 12.173c0 .074.007.148.02.222l.015.092-.096.017c-.726.12-1.44.306-2.13.558l-.121.046v-.129a4.34 4.34 0 0 1 .057-1.113 2.747 2.747 0 0 0-.15-1.418l-.03-.097.1-.025c.132-.03.263-.068.391-.113l.41-.142c.424-.15.861-.306 1.3-.416l.09-.023.058.177c.163.515.208 1.059.131 1.593a7.05 7.05 0 0 0-.045.771ZM34.656 15.886v.067l-.065.02c-.402.123-.794.278-1.208.442l-.257.102c-.239.094-.46.175-.672.242l-.122.039v-.125a1.056 1.056 0 0 1 0-.11c0-.171.024-.344.04-.517.066-.477.06-.96-.018-1.435l-.038-.164c-.056-.252-.11-.489-.156-.723l-.018-.081.08-.029a13.673 13.673 0 0 1 2.24-.577l.084-.014.065.193c.095.258.167.523.216.792.044.402.02.808-.069 1.203a5.682 5.682 0 0 0-.102.675ZM34.963 18.552a6.707 6.707 0 0 0-.098.885v.066l-.163.057c-.589.21-1.177.425-1.83.43h-.18l.039-.24a3.45 3.45 0 0 0 .05-1.27 6.363 6.363 0 0 0-.195-.65 7.312 7.312 0 0 1-.136-.395l-.027-.089.088-.03c.304-.107.616-.235.918-.362.392-.16.785-.326 1.177-.453l.09-.028.031.086c.028.071.061.143.093.214.07.141.124.29.162.442.083.437.078.886-.014 1.322l-.005.015ZM32.04 17.842c.026.071.052.145.075.218.196.613.143 1.154.053 1.716 0 .034 0 .069-.014.102v.09h-.092c-.182 0-.365-.014-.545-.014a4.362 4.362 0 0 0-.735.052 2.773 2.773 0 0 0-.552.154l-.152.06.02-.162c.05-.303.056-.612.017-.917-.043-.262-.104-.51-.163-.752-.047-.193-.096-.385-.135-.587l-.02-.104.106-.01c.216-.023.43-.038.645-.053.428-.024.855-.073 1.277-.147l.086-.015.026.083c.037.092.07.188.104.286ZM30.483 23.162a8.456 8.456 0 0 0-.277-1.291 18.777 18.777 0 0 1-.127-.481 2.29 2.29 0 0 1-.063-.539l.01-.065.055-.027a3.052 3.052 0 0 1 1.384-.266c.171 0 .344 0 .516.012h.143v.087c.027.3.087.598.177.886.113.391.175.794.186 1.2v.093h-.092c-.35.032-.696.096-1.033.192-.22.068-.461.148-.76.256l-.117.044-.002-.102ZM27.922 24.029l-.024-.08a5.242 5.242 0 0 0-.196-.516 3.822 3.822 0 0 1-.255-.783 3.748 3.748 0 0 1-.045-.733v-.083l.082-.011c.663-.078 1.3-.3 1.863-.653l.124-.069.023.137c.036.201.087.4.151.594.159.519.249 1.055.27 1.597v.07l-.07.026a9.318 9.318 0 0 1-1.85.492l-.073.012ZM27.328 23.954l.026.112h-.116c-.175 0-.347.015-.522.02a15.6 15.6 0 0 0-1.692.126l-.073.011-.041-.09c-.196-.42-.392-.852-.36-1.347.01-.161.03-.325.048-.486l.033-.29.12-.018c.365-.035.745-.05 1.116-.066.296-.011.6-.024.9-.046h.108v.108c-.024.387.04.773.184 1.133.12.268.21.547.269.833ZM24.302 18.7l.078-.015a11.129 11.129 0 0 1 1.62-.146l.392-.016h.075l.023.07v.042c.037.354.11.703.218 1.043.148.434.222.889.22 1.346 0 .075 0 .148-.016.221v.081h-.082c-.344.033-.697.054-1.038.071-.341.018-.692.039-1.031.072l-.104.01v-.103a2.222 2.222 0 0 0-.087-.538 6.303 6.303 0 0 1-.264-2.068l-.004-.07ZM26.508 17.908v.088h-.541a8.6 8.6 0 0 0-1.524.112l-.12.023v-.121a5.011 5.011 0 0 0-.266-1.76c-.05-.15-.09-.302-.12-.456l-.02-.095.096-.019c.393-.077.806-.121 1.197-.163.325-.035.663-.073.98-.13l.089-.015.023.087c.028.098.057.192.094.3.234.662.179 1.22.122 1.812l-.01.337ZM26.214 14.815v.082l-.082.018a3.738 3.738 0 0 1-.575.088c-.141.012-.284.02-.428.027-.386.012-.772.05-1.153.115l-.117.025v-.119a5.27 5.27 0 0 1 .103-.987l.014-.063c.113-.412.136-.842.067-1.262 0-.033-.016-.066-.026-.1l-.033-.135.122-.029c.63-.148 1.257-.296 1.878-.45l.157-.046.024.1c.123.462.16.942.106 1.416a6.487 6.487 0 0 0-.057 1.32Z" fill="#FF490C"/><path d="M82.921 69.47c.259.142.561.188.851.128.46-.143.863-.485 1.318-.626.27-.08.544-.145.822-.192.149.012.3.025.447.042.253.033.477.066.573.322-.302 6.048-.604 12.095-.904 18.142-.121.21-.264.407-.426.589a3.053 3.053 0 0 1-.873.558 4.793 4.793 0 0 1-2.763.207l.955-19.17Z" fill="#000"/><path d="M66.263 16.007 41.378 6.908h-.03c-.439-.162-.249-.86.197-.696l24.885 9.09.029.01c.44.16.25.859-.196.695ZM95.87 34.196l-12.536-5.194c-.435-.181-.059-.802.373-.624l12.534 5.194c.435.181.06.803-.371.624ZM107.1 40.119l-7.42-3.142c-.434-.192-.058-.806.372-.623l7.419 3.144c.435.182.058.804-.371.62ZM77.871 69.151l-.743 18.193c-.02.463-.755.463-.736 0l.736-18.193c.02-.463.755-.465.735 0h.008Z" fill="#fff"/><path d="M19.985 19.435c.32-.044.636-.111.945-.202-.03-.78.196-1.539.13-2.324a2.627 2.627 0 0 1-.867.045c-.465-.054-.469-.77 0-.722.24.028.482.02.72-.025-.238-.865-.528-1.652-.226-2.564.147-.44.857-.252.71.192-.253.77 0 1.456.222 2.17.533-.206 1.05-.498 1.582-.715a3.151 3.151 0 0 1 .028-.714c.1-.671.237-1.2.147-1.83l-.912.214c-.46.11-.655-.577-.196-.694l.933-.224a3.122 3.122 0 0 1-.123-1.587c.096-.456.806-.263.708.193-.065.413-.025.836.115 1.23l1.922-.455.065-.017c-.053-.193-.106-.37-.153-.56a7.95 7.95 0 0 1-.141-2.012c0-.466.745-.466.735 0-.03.7.031 1.401.18 2.087.024.094.05.192.075.277.69-.237 1.344-.539 2.02-.804a6.32 6.32 0 0 1-.127-2.07c.033-.462.769-.466.735 0a6.4 6.4 0 0 0 .102 1.812c.444-.14.953-.137 1.41-.173.138-.01.275-.028.41-.054a6.23 6.23 0 0 1 .04-1.789c.056-.456.784-.46.735 0a6.029 6.029 0 0 0-.047 1.612c.23-.07.457-.148.682-.225.477-.165.944-.333 1.416-.454a1.89 1.89 0 0 1 .077-.756c.139-.442.849-.254.71.192-.042.137-.06.28-.055.422a4.304 4.304 0 0 1 1.09 0c.463.061.469.784 0 .721a3.888 3.888 0 0 0-.945 0c.107.287.198.579.272.875.108.54-.072 1.155-.12 1.682a1.01 1.01 0 0 0 0 .134c.456-.054.919-.088 1.393-.11.475-.02.473.7 0 .722-.429.02-.847.054-1.255.104.14.355.255.72.341 1.09.073.459-.07.949-.16 1.395a1.418 1.418 0 0 0-.026.193 3.82 3.82 0 0 1 1.373 0c.467.088.269.783-.196.696a3.121 3.121 0 0 0-1.061-.012c.139.325.233.667.28 1.016.04.604-.084 1.177-.157 1.776a3.197 3.197 0 0 1 1.293-.11c.468.066.268.77-.196.695-.36-.04-.723.006-1.06.136.083.427.25.84.346 1.268.117.527-.255 1.327.121 1.776.3.355-.217.869-.52.51a1.484 1.484 0 0 1-.36-1.124 6.47 6.47 0 0 0-.287-2.141c-.101.044-.196.088-.303.129a5.113 5.113 0 0 1-1.803.288c.024.66.392 1.337.453 2.003v.038c.415.007.828.043 1.238.106.468.071.268.77-.196.696a5.782 5.782 0 0 0-1.04-.06c-.03.59-.08 1.167.212 1.732.212.416-.422.781-.635.366-.328-.643-.361-1.332-.373-2.03-.609.098-1.209.238-1.797.421.014.741-.011 1.468.232 2.197.149.445-.563.633-.708.193a7.554 7.554 0 0 1-.29-2.16c-.58.182-1.17.334-1.765.455 0 .752-.243 1.46.088 2.197.196.421-.445.789-.636.364a2.505 2.505 0 0 1-.282-1.43c.044-.338.064-.678.059-1.02-.108.01-.214.02-.322.024-.588.029-1.14.079-1.69.154 0 .017 0 .034.014.052.15.637-.252 1.296.133 1.895.255.384-.392.756-.636.365-.284-.444-.292-.862-.243-1.377.026-.27.005-.542-.06-.804-.37.069-.74.152-1.118.255-.238.064-.473.122-.708.168.05.333.037.671-.036 1-.104.454-.814.262-.71-.192.052-.23.07-.466.053-.7-.422.046-.85.04-1.27-.02-.467-.067-.267-.77.196-.696.325.045.654.05.98.013-.137-.638-.36-1.279-.392-1.923v-.143c-.383 0-.764.036-1.14.108-.46.102-.656-.592-.196-.696.433-.079.872-.121 1.312-.127a4.375 4.375 0 0 0-.137-.939c-.106-.385-.231-.77-.322-1.174-.341.104-.69.18-1.045.227-.46.058-.455-.665.01-.723Zm6.093-7.333-.058.017c-.634.156-1.271.306-1.909.456.012.048.026.098.036.147.108.46 0 .91-.079 1.362-.065.316-.1.638-.104.961.528-.08 1.06-.129 1.595-.144.188-.015.375-.044.559-.086a6.388 6.388 0 0 1 .064-1.347c.05-.458.015-.92-.104-1.366Zm.245 3.7a3.945 3.945 0 0 1-.096-.309c-.717.124-1.447.15-2.184.293.03.15.07.299.117.444.196.578.288 1.185.271 1.793.65-.093 1.305-.133 1.961-.12h.016c.059-.703.184-1.342-.085-2.104v.002Zm2.46-4.694c-.673.284-1.308.561-1.989.786.096.308.154.626.173.947.03.613-.124 1.175-.128 1.762.43-.164.846-.371 1.277-.577.174-.08.352-.149.533-.208a2.736 2.736 0 0 1 .026-.752c.118-.708.208-1.303.108-1.96v.002Zm.196 3.885a9.232 9.232 0 0 1-.157-.434c-.41.147-.81.318-1.198.511a4.7 4.7 0 0 1-.687.264c.224.835.393 1.416.293 2.308 0 .047 0 .093-.014.139.553-.172 1.097-.37 1.63-.596.072-.027.147-.05.221-.072 0-.735.208-1.356-.094-2.125l.006.005Zm2.353-4.436c-.609.062-1.214.16-1.812.29.125.488.14.996.043 1.49-.087.42-.132.85-.133 1.279.651-.146 1.322-.24 1.961-.406-.03-.154-.05-.31-.057-.467-.033-.787.228-1.41-.015-2.18l.013-.006Zm2.85-.715-.03-.093c-.572.143-1.131.36-1.702.556a4.13 4.13 0 0 1-.392.116c.18.466.232.97.153 1.464-.066.359-.085.725-.057 1.088a11.831 11.831 0 0 1 2.147-.563 1.78 1.78 0 0 1-.021-.233c-.04-.835.186-1.502-.112-2.337l.014.002Zm-1.297 8.608c.105.464 0 .962-.072 1.445h.067c.674 0 1.286-.239 1.896-.458.015-.31.05-.62.104-.925.09-.424.095-.861.014-1.287a4.28 4.28 0 0 0-.25-.643c-.713.225-1.41.577-2.098.814.108.346.26.689.34 1.054Zm-.466-1.877a.836.836 0 0 0 0 .1c.221-.071.443-.152.667-.24.5-.193.98-.397 1.47-.547.034-.625.263-1.231.161-1.864a5.499 5.499 0 0 0-.25-.89c-.758.128-1.502.321-2.225.576.057.283.124.577.196.885.145.647.014 1.318-.025 1.974l.006.006Zm-2.244 4.8c.177.584.312 1.18.406 1.783.253-.093.508-.181.765-.258a5.46 5.46 0 0 1 1.051-.204 4.737 4.737 0 0 0-.182-1.177 4.206 4.206 0 0 1-.18-.908c-.652-.023-1.305-.056-1.909.24h-.012c0 .174.021.348.061.518v.005Zm.028-2.25c.04.315.034.634-.018.947.184-.073.375-.126.57-.16.432-.057.869-.07 1.303-.038 0-.035 0-.07.014-.106.096-.59.145-1.094-.05-1.672-.058-.177-.119-.342-.172-.51-.645.124-1.296.133-1.945.193.084.44.22.866.298 1.34v.006Zm.623-2.173a4.57 4.57 0 0 0 .867-.087c-.059-.608.084-1.233.067-1.845a4.616 4.616 0 0 0-.196-1.073 9.874 9.874 0 0 1-1.597.337 6.078 6.078 0 0 0-.437.079c.04.15.09.3.151.444.275.648.251 1.27.17 1.958 0 .073-.01.144-.011.216.325-.035.657-.035.986-.035v.006Zm-3.275 5.678c.079.453.314.849.443 1.29a9.098 9.098 0 0 0 1.83-.49 6.092 6.092 0 0 0-.265-1.57 4.322 4.322 0 0 1-.155-.609 4.567 4.567 0 0 1-1.894.664c-.008.237.005.475.041.71v.005Zm-.115-2.616c.097.371.133.755.105 1.137a5.076 5.076 0 0 0 1.542-.502c.098-.052.196-.102.278-.154 0-.123.02-.248.041-.384.132-.814-.129-1.472-.264-2.213-.24.052-.474.123-.7.214-.405.178-.825.32-1.255.425.02.499.104.994.253 1.471v.006Zm-2.427 4.113c.739-.086 1.481-.135 2.224-.146a4.095 4.095 0 0 0-.264-.816 2.646 2.646 0 0 1-.196-1.173c-.677.05-1.373.05-2.014.111h-.04c-.025.235-.057.47-.074.7-.035.474.166.895.364 1.318v.006Zm-.349-3.303c.055.184.085.373.09.564.685-.066 1.385-.077 2.072-.142 0-.074.011-.147.015-.22.05-.802-.392-1.58-.437-2.383v-.018c-.67.007-1.337.061-1.998.162a6.28 6.28 0 0 0 .258 2.031v.006Zm-2.4 2.418a6.82 6.82 0 0 0 .284 1.49c.589-.12 1.157-.305 1.724-.45-.098-.241-.196-.486-.292-.753a2.945 2.945 0 0 1-.03-1.285c-.43.104-.853.24-1.278.367-.14.042-.284.072-.43.093.008.173.016.346.022.532v.006Zm-.377-2.906a8.78 8.78 0 0 1 .304 1.642c.095-.017.197-.036.285-.061.521-.139 1.023-.314 1.55-.421 0-.466-.22-.945-.336-1.387a3.876 3.876 0 0 1-.061-1.116c-.636.204-1.241.467-1.861.696.02.217.06.431.12.64v.006Zm1.765-2.093a5.07 5.07 0 0 0-.196-1.814 6.264 6.264 0 0 1-.131-.449c-.54.193-1.024.48-1.53.697.025.12.043.241.053.363.053.67-.055 1.293-.088 1.924.635-.24 1.257-.512 1.9-.727l-.008.006ZM72.813 45.359a42.247 42.247 0 0 1 3.095 8.281c.114.45.822.26.71-.192a43.137 43.137 0 0 0-3.167-8.45c-.204-.422-.834-.057-.638.36ZM80.95 44.078l7.088 1.935c.61.167.868-.77.258-.927l-7.085-1.936c-.612-.167-.87.762-.261.928Z" fill="#000"/><path d="M3.013 136.056a.477.477 0 0 1 .208-.341l23.716-16.882 4.964-3.536a.487.487 0 0 1 .163-.075.46.46 0 0 1 .451.013l1.228.677a1.13 1.13 0 0 1 .082-.048l26.334-11.855 9.196-4.14 2.524-12.21a.396.396 0 0 1 .26-.315l3.308-1.54h.015c.244-5.873.486-11.745.728-17.617a.501.501 0 0 1 .037-.169c-.09-.496.22-.99.661-1.37h-.01c-1.36-.973-1.933-2.544-2.143-4.132-.141-1.073-.108-2.18-.212-3.26a36.617 36.617 0 0 0-.63-3.963 37.234 37.234 0 0 0-2.286-7.118c-.392-.921-.938-1.85-1.332-2.808-1.112-2.455-3.367-4.307-5.944-5.152-2.5 1.774-5.538 2.682-8.837 2.064l-.041-.013h-.018l-27.597-8.143-1.675-.495a.487.487 0 0 1-.159-.079 11.396 11.396 0 0 1-2.512-.93c-6.802-3.463-7.768-12.441-5.456-18.841 1.553-4.096 4.373-7.71 8.34-9.796 3.438-1.806 7.527-2.027 11.03-.298l25.485 9.315.197.074.025.012h.033c3.61 1.368 5.907 4.198 7.076 7.526l13.77 6.838c.016.01.033.02.048.031l12.303 5.092a5.453 5.453 0 0 1 3.057 2.485.567.567 0 0 1 .093.03l6.061 2.567c.86.279 1.602.825 2.115 1.557.035.007.07.018.104.032l4.685 1.986a.604.604 0 0 1 .072.038c1.408.554 2.128 1.782 2.281 3.105.489.03.979.007 1.463-.067 1.322-.18 2.628-.456 3.97-.44 2.661.03 5.189 1.754 6.709 3.802.8 1.08.967 2.513 1.019 3.802.065 1.585 0 3.185-.037 4.77a119.707 119.707 0 0 1-.629 9.328 126.722 126.722 0 0 1-1.34 9.269c-.514 2.826-1.118 5.579-2.487 8.147-2.39 4.474-6.668 7.76-10.982 10.353-3.246 1.953-6.684 3.588-10.126 5.177-3.302 1.525-6.612 3.06-10.001 4.391l3.286 3.861h.014l18.476 8.507a.46.46 0 0 1 .157.115.397.397 0 0 1 .134.354c-.36 3.928-.718 7.857-1.075 11.787a.483.483 0 0 1-.249.385.633.633 0 0 1-.083.061l-16.944 10.13-32.283 19.28-19.852 11.861-.232.139a.582.582 0 0 1-.133.055.414.414 0 0 1-.467-.023l-22.496-15.005-16.855-11.245a.647.647 0 0 1-.264-.418c-.166-2.18-.334-4.36-.502-6.54a.484.484 0 0 1 .011-.152Zm27.22-18.17a1.102 1.102 0 0 0-.432.091L8.683 133.01l-1.765 1.249c-.035.042-.07.083-.102.127-.167.225-.043.417.13.577l22.257 14.855 12.584 8.397c.13.051.271.07.41.055a.638.638 0 0 0 .122-.034l22.126-17.823 2.404-1.924a.378.378 0 0 0-.073-.498l-.029-.027-23.671-13.106-12.428-6.891a1.55 1.55 0 0 0-.416-.081Zm2.56-1.394c-.052-.02-.103-.043-.156-.06a.943.943 0 0 0-.706.027l-.557.396a.76.76 0 0 0-.079.181.235.235 0 0 0 .073.208c.02.02.043.04.066.057l23.58 13.057 13.165 7.288c.07.039.13.094.172.16a.391.391 0 0 1 .184.314.383.383 0 0 1-.164.325l-22.68 18.263-3.227 2.599a.408.408 0 0 1-.28.188.421.421 0 0 1-.33-.076l-23.226-15.497-12.779-8.528a.8.8 0 0 0-.5-.012l-.8.577a.192.192 0 0 0-.037.133.192.192 0 0 0 .025.062l22.336 14.895 15.009 10.015a.652.652 0 0 0 .494-.008l21.912-17.642 6.317-5.088c.196-.258.38-.508.104-.843-.028-.033-.06-.065-.09-.098l-22.936-12.668-14.89-8.225Zm37.1-13.797a.644.644 0 0 0-.324.09l-14.22 14.043c-.02.025-.04.052-.057.079a.26.26 0 0 0-.051.158c.018.052.047.1.086.14l16.02 8.87c.064.023.13.039.197.047a.247.247 0 0 0 .11-.025.232.232 0 0 0 .086-.072 69970.7 69970.7 0 0 1 8.433-18.365.76.76 0 0 0 .014-.133.28.28 0 0 0-.118-.202c-.031-.021-.067-.04-.098-.06l-9.79-4.514a1.994 1.994 0 0 0-.196-.054.709.709 0 0 0-.092-.002Zm3.038-14.141a.213.213 0 0 0-.153.006.208.208 0 0 0-.108.107l-2.452 11.86c-.033.192-.06.384-.074.588a.809.809 0 0 0 .239.676l9.967 4.597c.076 0 .139-.017.16-.079a.8.8 0 0 0 .028-.1l.137-13.935c0-.023 0-.046-.016-.067a.314.314 0 0 0-.015-.039.406.406 0 0 0-.169-.165l-7.3-3.367a2.064 2.064 0 0 0-.244-.082Zm2.655-1.224a.172.172 0 0 1-.014-.019c-.121-.17-.213-.283-.431-.3l-1.334.617a.173.173 0 0 0-.039.15.247.247 0 0 0 .06.104l7.284 3.357c.093.024.188.03.283.02l.08-.02 6.784-3.15a.13.13 0 0 0 .023-.103c0-.042-.054-.08-.103-.115l-1.69-.77a.399.399 0 0 0-.34.083c-.418 1.924-3.871 1.993-5.372 1.981-1.377-.015-4.508-.246-5.191-1.835Zm5.94 18.951.016.051c.018.062.09.058.163.043l7.974-3.701c.303-.171.548-.427.702-.735.09-.274.126-.563.104-.851l-1.093-11.203a1.116 1.116 0 0 0-.372-.633c-.288-.192-.661-.123-1.008.013l-6.1 2.826a.619.619 0 0 0-.211.181.378.378 0 0 0-.05.133l-.125 13.876Zm-5.099-19.907a.356.356 0 0 1 0 .046c0 .123.012.246.014.372a.056.056 0 0 1 0 .019c.045.565 1.126.852 1.547.987.907.26 1.847.394 2.791.402a10.84 10.84 0 0 0 2.809-.273c.406-.095 1.545-.368 1.612-.903a.503.503 0 0 1 .033-.127.468.468 0 0 1 0-.105l.812-17.456c-1.26.73-3.065.77-4.419.77-1.484-.014-3.19-.235-4.477-1.045-.243 5.77-.484 11.542-.722 17.313Zm-4.542-40.192.353 1.022c.189.408.37.818.546 1.23a37.85 37.85 0 0 1 1.912 5.918c.455 1.95.758 3.93.906 5.925.13 1.662.035 3.678 1.2 5.002.165.136.351.246.472.144a.335.335 0 0 0 .09-.242l-.062-.358c-.392-2.272-.318-4.594-.65-6.877a.399.399 0 0 1 0-.085.379.379 0 0 1 .102-.345.394.394 0 0 1 .348-.113l2.09.483a.317.317 0 0 1 .196.113c.048.06.072.136.067.212a.34.34 0 0 1 .018.068c.275 1.804.375 3.603.477 5.422.02.85.258 1.682.692 2.419.035.055.073.108.114.16.093.087.193.166.3.238.364.246.93.18.796-.374a4.099 4.099 0 0 0-.073-.253 4.656 4.656 0 0 1-.549-1.58c-.182-1.135-.133-2.308-.214-3.453a37.304 37.304 0 0 0-3.436-13.052c-.237-.506-.494-1.006-.725-1.514a16 16 0 0 0-1.444-2.083 5.146 5.146 0 0 0-1.427-1.14 2.904 2.904 0 0 0-.785-.263 4.62 4.62 0 0 0-.435-.044c-.98-.044-1.373.46-1.49 1.131.017.762.362 1.581.611 2.29Zm-.45-4.059h-.026l-.028.039.053-.039ZM35.38 5.561c-2.78-1.95-6.342-1.662-9.237-.144-3.4 1.783-5.797 5.1-7.119 8.58-1.598 4.424-1.737 9.892 1.334 13.774 2.724 3.441 7.307 3.799 11.05 1.837 4.345-2.278 7.036-6.947 7.95-11.564.862-4.37-.08-9.747-3.978-12.483Zm1.889-.8c-.057-.017-.116-.04-.173-.056-.53-.153-.588.385-.333.697.02.025.043.048.065.071.021.023.049.042.074.065 3.267 2.872 4.085 7.67 3.564 11.747-.589 4.538-2.925 8.96-6.572 11.844-2.136 1.687-4.748 2.662-7.317 2.63-.363.015-1.079.023-.857.494.076.13.195.233.337.29a10.55 10.55 0 0 0 4.554.221c4.51-.769 8.135-4.1 10.286-7.908 2.4-4.244 3.04-9.499 1.387-14.1a11.165 11.165 0 0 0-5.015-5.999v.004Zm25.626 9.265-.027-.012h-.034L42.156 6.433a1.108 1.108 0 0 0-.62.077c-.208.102-.162.385-.023.721a14.969 14.969 0 0 1 2.489 6.325c.706 4.586-.567 9.377-3.138 13.224-2.136 3.185-5.47 5.727-9.141 6.673a.725.725 0 0 0-.134.083c-.266.212 0 .51.175.625.125.077.257.148.392.218l3.199.95c.182-.016.363-.04.541-.07 5.96-1.138 9.98-6.411 11.392-11.926.155-.6 1.1-.347.946.256-1.318 5.155-4.844 10.12-10.002 12.025a.346.346 0 0 0-.176.266.337.337 0 0 0 .123.293l.7.208.165-.025a.507.507 0 0 1 .115-.038c5.884-1.203 9.851-6.43 11.252-11.91.154-.602 1.1-.346.945.256-1.298 5.078-4.729 9.959-9.751 11.927a.404.404 0 0 0-.15.367.362.362 0 0 0 .197.233l.573.17c.196-.024.404-.058.606-.095 5.614-1.42 9.356-6.475 10.715-11.788.155-.603 1.1-.347.946.255-1.283 5.021-4.625 9.811-9.547 11.845-.137.155-.24.336-.077.513a.42.42 0 0 0 .09.075l.805.239c.082-.014.162-.03.24-.048a.47.47 0 0 1 .128-.054c5.535-1.493 9.202-6.489 10.547-11.752.155-.6 1.1-.346.946.256-1.257 4.92-4.472 9.586-9.218 11.707a.43.43 0 0 0-.196.399c.02.111.136.207.275.292l.686.202a.226.226 0 0 1 .034-.011c5.57-1.466 9.266-6.485 10.617-11.77.155-.602 1.1-.346.945.256-1.245 4.871-4.41 9.495-9.084 11.644-.037.03-.076.058-.111.09-.232.212-.051.41.168.549l.844.248c.023 0 .047-.021.072-.029 5.405-1.585 8.974-6.5 10.298-11.684.155-.6 1.1-.345.945.256-1.241 4.86-4.377 9.447-9.02 11.617a.32.32 0 0 0 0 .404.69.69 0 0 0 .238.18l.589.176.031.013h.028c6.764 1.27 12.073-4.513 13.796-10.353 1.806-6.137.006-14.443-6.666-16.967Zm19.279 13.808c-.053-.092-.103-.192-.153-.279l-10.132-5.032-.13-.027c-.47-.09-.858.021-.886.544a.121.121 0 0 1 0 .027 18.555 18.555 0 0 1-.368 8.183 17.024 17.024 0 0 1-4.303 7.386 6.8 6.8 0 0 0-.086.173c-.185.373.135.873.392 1.154.213.176.448.324.7.44 4.06 1.359 8.868 1.016 12.228-1.788 3.032-2.538 4.267-7.166 2.737-10.785v.004Zm12.973 5.358a.468.468 0 0 1-.044-.089l-10.378-4.298a3.343 3.343 0 0 0-.473-.08c-.46-.039-.608.28-.625.648.643 3.507-.642 7.25-3.297 9.742a10.143 10.143 0 0 1-1.906 1.404c-.98 1.05-1.5 2.735-1.177 4.115.324 1.379 1.177 2.658 1.74 3.945a38.112 38.112 0 0 1 2.975 11.927c.111 1.264.047 2.551.247 3.805.221 1.385 1.141 2.391 2.645 2.06 1.56-.34 2.236-1.96 2.587-3.31.743-2.84.69-5.871 1.042-8.77.311-2.566.931-5.108 2.259-7.362 1.304-2.215 3.597-3.655 4.783-5.952 1.263-2.432 1.018-5.479-.378-7.79v.005Zm2.67 1.361a.444.444 0 0 0-.048-.032c-.197-.123-.693-.443-.857-.035a.738.738 0 0 0-.044.152c.48 1.539.563 3.17.24 4.748-.406 2.072-1.66 3.597-3.044 5.075-.072.303.08.513.392.627.245.072.505.076.751.011 3.748-1.525 5.511-7.733 2.61-10.55v.005Zm7.471 4.04a.596.596 0 0 1-.108-.05.537.537 0 0 1-.067-.02l-4.185-1.775-.143-.024c-.059 0-.118-.012-.177-.014-.347 0-.451.287-.472.617.306 2.226-.406 4.727-1.824 6.541-.053.162-.11.321-.159.487-.208.71.3 1.183.886 1.46l3.935.914.037.013c.032 0 .064.004.096.01 4.32.863 6.307-6.776 2.181-8.17v.011Zm6.913 3.59a.575.575 0 0 1-.137-.079.543.543 0 0 1-.106-.033l-2.116-.896a8.216 8.216 0 0 0-.526-.127c-.275-.056-.69-.104-.8.24a1.141 1.141 0 0 0-.037.285 6.427 6.427 0 0 1-1.493 4.677c-.104.47.03.88.588 1.165l.032.014 2.995.706a.46.46 0 0 1 .056.017c.042 0 .083.003.124.01 3.216.596 4.35-4.896 1.42-5.99v.01Zm-4.599 50.574c4.564-2.405 9.204-5.246 12.234-9.478 1.61-2.243 2.396-4.727 2.941-7.393.62-3.047 1.097-6.123 1.459-9.209.363-3.085.589-6.207.72-9.322.059-1.495.083-2.991.085-4.488 0-1.335.139-2.847-.785-3.943-1.469-1.743-3.487-2.386-5.709-2.072-1.422.192-2.877.486-4.271.348-.696 1.306-2.007 2.203-3.762 1.872l-.049-.014a.614.614 0 0 1-.129-.013l-5.774-1.355a4.317 4.317 0 0 1-1.712-.013h-.025a.635.635 0 0 1-.106-.014l-6.882-1.62a.49.49 0 0 1-.179-.08 5.6 5.6 0 0 1-3.261.339c-3.47 4.424-2.898 10.478-3.746 15.764-.286 1.78-.865 3.628-2.326 4.657.453.36.773.818.753 1.301v.04l-.831 17.872 3.68 1.696a.392.392 0 0 1 .25.322.621.621 0 0 1 .031.128l1.177 12.12c5.546-2.18 10.961-4.67 16.217-7.457v.012Zm-15.134 11.781a4.13 4.13 0 0 0-1.242-.806c-.53-.208-1.11-.108-1.657.069l-8.147 3.776a.565.565 0 0 1-.15.042v.018l-8.347 18.186c.017.087.076.143.231.106l.096-.027 23.77-13.327 1.553-.872-6.107-7.165Zm6.246 4.709-.055.058a.427.427 0 0 1 .078-.048l-.023-.01Zm13.779 6.404a.697.697 0 0 0-.137-.123l-12.538-5.771c-.104-.025-.21-.052-.318-.073-.557-.108-.86.292-.643.792.032.071.07.14.11.206l.694.816a.62.62 0 0 1-.22.842l-25.12 14.068-1.924 1.079a.544.544 0 0 1-.11.047.469.469 0 0 1-.392-.035l-17.833-9.874a.437.437 0 0 1-.205-.217.423.423 0 0 1-.014-.295.463.463 0 0 1 .139-.271l14.665-14.488a.578.578 0 0 0-.102-.675c-.196-.192-.547-.102-.813 0l-24.187 10.888-7.97 3.588a.409.409 0 0 0-.197.259.393.393 0 0 0 .061.318c.115.123.24.238.373.342l20.835 11.491 15.662 8.656a.449.449 0 0 1 .037.025h.016l1.218.758 23.793-13.325a25700.06 25700.06 0 0 0 15.01-8.407c.183-.183.304-.398.11-.633v.012ZM4.463 142.473l22.296 14.868 16.636 11.104 16.755-10.003 32.292-19.295 19.137-11.431c.634-.504.836-1.154.951-1.91.243-2.682.487-5.363.732-8.043v-.117a.478.478 0 0 0-.271-.335.748.748 0 0 0-.463 0l-22.616 12.656-16.06 8.993a.494.494 0 0 1-.212.066.436.436 0 0 1-.353-.062l-1.092-.681-22.179 17.86-7.501 6.04a.752.752 0 0 1-.063.041.418.418 0 0 1-.531.027l-22.793-15.209-14.76-9.842a1.044 1.044 0 0 0-.143-.058c-.113-.034-.155.047-.17.147.14 1.723.276 3.448.408 5.172v.012Z" fill="#000"/><path d="M82.772 62.033c.137-1.233.694-3.016 2.24-3.039 1.544-.023 1.84 2.24 1.792 3.295-.06 1.235-.75 3.019-2.242 3.04-1.537.023-1.841-2.24-1.79-3.295Zm1.7 2.609c1.092.385 1.569-1.716 1.65-2.353.093-.834-.07-2.268-1.02-2.608-1.091-.385-1.57 1.714-1.65 2.352-.049.855.031 2.255 1.02 2.609Z" fill="#000"/></svg>