<svg width="256" height="72" fill="none" xmlns="http://www.w3.org/2000/svg"><path d="M114.237 44.278c0-3.028 2.226-5.278 5.341-5.278s5.341 2.25 5.341 5.365v.26h-2.849v-.433c0-1.384-1.068-2.423-2.492-2.423s-2.492 1.039-2.492 2.423v7.788c0 1.385 1.068 2.423 2.492 2.423s2.492-1.038 2.492-2.423v-2.596h-2.492v-2.682h5.341v5.019c0 3.029-2.226 5.278-5.341 5.278s-5.341-2.163-5.341-5.278v-7.443Z" fill="#222"/><path fill-rule="evenodd" clip-rule="evenodd" d="M95.99 47.74c.98-.865 1.513-2.077 1.513-3.46 0-2.856-2.136-4.934-5.073-4.934H87V56.74h5.697c3.026 0 5.251-2.164 5.251-5.105.09-1.645-.712-3.03-1.958-3.894ZM89.85 42.03h2.403c1.424 0 2.314.952 2.314 2.25s-.98 2.25-2.314 2.25h-2.403v-4.5Zm2.758 12.028H89.85v-4.845h2.758c1.514 0 2.493.951 2.493 2.423 0 1.47-.98 2.422-2.492 2.422Z" fill="#222"/><path d="M108.274 51.98c0 1.385-1.068 2.424-2.493 2.424-1.424 0-2.492-1.039-2.492-2.424V39.347h-2.848V51.72c0 3.116 2.225 5.279 5.34 5.279 3.116 0 5.341-2.25 5.341-5.28V39.348h-2.848V51.98Z" fill="#222"/><path fill-rule="evenodd" clip-rule="evenodd" d="m131.15 39.346-4.095 17.394h2.848l.801-3.462h4.896l.801 3.462h2.849l-4.184-17.394h-3.916Zm.177 11.25 1.781-7.615 1.78 7.615h-3.561Z" fill="#222"/><path d="M143.611 42.029h-4.005v-2.683h10.77v2.683h-3.916l-.089 14.71h-2.76V42.03ZM151.889 42.029h3.916v14.71h2.849V42.03h3.916v-2.683h-10.681v2.683ZM165.151 39.346H168V56.74h-2.849V39.346Z" fill="#222"/><path fill-rule="evenodd" clip-rule="evenodd" d="M130.502 18.589v7.38h4.18v-9.96h-.354c-.402 0-.803 0-1.205.002h-.001c-.804.002-1.607.004-2.41-.002a1.148 1.148 0 0 0-.727.24l-7.411 5.35c-.386.273-.459.274-.841 0a1310.48 1310.48 0 0 0-7.455-5.355 1.348 1.348 0 0 0-.722-.232 270.951 270.951 0 0 0-3.706-.01h-1.235a3.18 3.18 0 0 0-.224.012l-.155.01.054.046.041.036c.065.057.115.1.167.137 3.939 2.835 7.876 5.673 11.811 8.515.278.201.493.189.766-.01a19199.295 19199.295 0 0 1 8.959-6.47c.057-.042.115-.085.175-.12.175-.106.273-.038.293.145.005.095.005.19 0 .286Zm-65.344-2.582c.054-.003.091-.005.128-.005 5.982 0 11.964.004 17.946.01 1.099 0 2.187.104 3.23.464.808.28 1.484.715 1.746 1.56.32 1.038-.071 2.09-1.026 2.736-.904.61-1.946.832-3.02.948a26.79 26.79 0 0 1-.928.08c-.241.018-.483.036-.723.06-.102.023-.2.06-.291.11.031.103.08.2.145.29 1.198 1.157 2.4 2.312 3.607 3.462.04.037.078.078.123.125.032.034.067.072.11.115a8.95 8.95 0 0 0-.119.009c-.078.005-.142.01-.205.01h-4.147a.98.98 0 0 1-.398-.07.945.945 0 0 1-.332-.226c-.747-.72-1.497-1.44-2.247-2.158l-.003-.003c-.804-.77-1.608-1.542-2.41-2.315a1.315 1.315 0 0 1-.195-.365 1.54 1.54 0 0 1 .386-.116c.46-.01.922-.016 1.383-.022.866-.011 1.732-.022 2.596-.066.748-.06 1.49-.166 2.224-.316.247-.058.481-.157.693-.293.915-.535.93-1.693.025-2.256-.575-.356-1.235-.453-1.897-.502a23.967 23.967 0 0 0-1.722-.05H66.931a1.2 1.2 0 0 1-.482-.071 1.16 1.16 0 0 1-.409-.255c-.167-.15-.344-.296-.532-.452-.16-.134-.33-.275-.509-.43l.158-.008Zm125.501.335.341-.335-.492.011c-3.958-.008-7.916-.008-11.875 0-.956.002-1.92.02-2.878.084-1.242.084-2.451.325-3.544.94-3.039 1.702-3.323 5.46-.565 7.521a6.76 6.76 0 0 0 3.557 1.345c.64.051 1.283.055 1.927.06.495.003.991.006 1.485.03.472.024.783-.208 1.099-.443.108-.08.216-.161.332-.232a3.26 3.26 0 0 0-.626-.082c-1.442-.105-2.818-.412-4.006-1.253-1.919-1.36-2.006-3.903-.162-5.356.459-.346.966-.629 1.507-.842 1.145-.474 2.374-.558 3.606-.558h8.956c.17 0 .391-.001.502-.097.283-.245.549-.508.835-.791l.001-.002Zm-26.486 9.644-1.096.001c-1.208.002-2.382.004-3.555-.015-.19 0-.411-.148-.556-.286a2412.473 2412.473 0 0 1-7.487-7.16l-.317-.304a98.984 98.984 0 0 0-.739-.707c-.293-.277-.456-.277-.752 0l-.691.662-.002.002a549.812 549.812 0 0 0-3.1 2.98.987.987 0 0 1-.354.246c-.136.055-.283.08-.431.074-.414-.014-.828-.01-1.262-.005-.224.003-.453.005-.69.005l.09-.106c.045-.053.081-.097.121-.136 1.727-1.654 3.453-3.31 5.18-4.966a.836.836 0 0 1 .291-.2.87.87 0 0 1 .351-.064c.619.004 1.239.005 1.858.005.796 0 1.592.001 2.388.01a.936.936 0 0 1 .582.217c3.341 3.176 6.676 6.362 10.002 9.56.041.042.08.09.169.187Zm-63.381-9.965h-4.12v9.943h4.12V16.02Z" fill="#222"/></svg>