<svg width="325" height="72" fill="none" xmlns="http://www.w3.org/2000/svg"><path d="M114.952 45.19a11.46 11.46 0 0 0 3.502.533l-.01.02c1.938 0 3.455-.386 4.552-1.176 1.097-.78 1.641-1.846 1.641-3.18 0-.996-.257-1.767-.773-2.33a4.275 4.275 0 0 0-1.86-1.194c-.725-.237-1.68-.464-2.882-.701-.964-.178-1.727-.346-2.28-.514a3.472 3.472 0 0 1-1.384-.77c-.372-.345-.554-.81-.554-1.392 0-.76.325-1.372.983-1.836.658-.465 1.632-.701 2.93-.701 1.717 0 3.187.444 4.427 1.313l.888-1.66c-.621-.434-1.422-.77-2.396-1.036a10.925 10.925 0 0 0-2.91-.395c-1.87 0-3.32.415-4.37 1.225-1.05.81-1.574 1.856-1.574 3.14 0 1.026.257 1.826.782 2.409a4.251 4.251 0 0 0 1.899 1.234c.744.237 1.717.474 2.939.71.906.159 1.641.317 2.194.485.554.167 1.012.414 1.375.73.362.316.543.76.543 1.323 0 .79-.324 1.412-.982 1.847-.659.434-1.67.651-3.045.651a9.358 9.358 0 0 1-2.967-.483c-.945-.316-1.737-.731-2.367-1.234l-.915 1.629c.629.543 1.498.997 2.614 1.352Z" fill="#222"/><path fill-rule="evenodd" clip-rule="evenodd" d="M175.64 45.574V24h-2.023v9.193c-.63-.988-1.431-1.738-2.414-2.252-.983-.513-2.08-.77-3.302-.77-1.412 0-2.681.326-3.826.978-1.136.642-2.032 1.56-2.681 2.745-.649 1.175-.974 2.527-.974 4.038 0 1.51.325 2.854.974 4.038.649 1.185 1.536 2.104 2.681 2.765 1.145.662 2.414.988 3.826.988 1.26 0 2.386-.267 3.388-.81 1.002-.543 1.803-1.333 2.414-2.36v3.021h1.937Zm-4.723-2.428c-.85.493-1.794.74-2.844.74-1.069 0-2.023-.247-2.872-.74a5.356 5.356 0 0 1-1.994-2.114c-.487-.908-.726-1.945-.726-3.11 0-1.165.239-2.202.726-3.11a5.111 5.111 0 0 1 1.994-2.113c.849-.494 1.822-.74 2.872-.74 1.05 0 1.994.246 2.844.74a5.363 5.363 0 0 1 1.994 2.113c.487.908.725 1.945.725 3.11 0 1.165-.238 2.202-.725 3.11a5.112 5.112 0 0 1-1.994 2.114Z" fill="#222"/><path d="M181.432 45.19a11.46 11.46 0 0 0 3.502.533l-.009.02c1.937 0 3.454-.386 4.551-1.176 1.097-.78 1.641-1.846 1.641-3.18 0-.996-.257-1.767-.773-2.33a4.275 4.275 0 0 0-1.86-1.194c-.725-.237-1.68-.464-2.882-.701-.963-.178-1.727-.346-2.28-.514a3.472 3.472 0 0 1-1.384-.77c-.372-.345-.554-.81-.554-1.392 0-.76.325-1.372.983-1.836.659-.465 1.632-.701 2.93-.701 1.717 0 3.187.444 4.427 1.313l.888-1.66c-.62-.434-1.422-.77-2.395-1.036a10.937 10.937 0 0 0-2.911-.395c-1.87 0-3.32.415-4.37 1.225-1.05.81-1.574 1.856-1.574 3.14 0 1.026.257 1.826.782 2.409a4.251 4.251 0 0 0 1.899 1.234c.744.237 1.718.474 2.939.71.906.159 1.641.317 2.194.485.554.167 1.012.414 1.375.73.362.316.544.76.544 1.323 0 .79-.325 1.412-.983 1.847-.659.434-1.67.651-3.044.651a9.359 9.359 0 0 1-2.968-.483c-.945-.316-1.737-.731-2.367-1.234l-.915 1.629c.63.543 1.498.997 2.614 1.352ZM199.906 45.446a3.941 3.941 0 0 0 1.402-.8h-.019l-.715-1.48c-.563.523-1.308.79-2.224.79-.83 0-1.469-.238-1.908-.712-.439-.484-.658-1.175-.658-2.083v-9.133h4.542V30.28h-4.542v-3.348h-2.023V41.27c0 1.422.381 2.508 1.145 3.288.763.78 1.841 1.166 3.254 1.166.61 0 1.192-.09 1.746-.277Z" fill="#222"/><path fill-rule="evenodd" clip-rule="evenodd" d="M218.694 45.574V30.28h-2.023v2.913c-.629-.988-1.431-1.738-2.414-2.252-.983-.513-2.08-.77-3.301-.77-1.413 0-2.682.326-3.827.978-1.135.642-2.032 1.56-2.681 2.745-.649 1.175-.973 2.527-.973 4.038 0 1.51.324 2.854.973 4.038.649 1.185 1.536 2.104 2.681 2.765 1.145.662 2.414.988 3.827.988 1.259 0 2.385-.267 3.387-.81 1.002-.543 1.803-1.333 2.414-2.36v3.021h1.937Zm-4.723-2.428c-.849.493-1.794.74-2.844.74-1.068 0-2.032-.237-2.872-.74a5.356 5.356 0 0 1-1.994-2.114c-.487-.908-.725-1.945-.725-3.11 0-1.165.238-2.202.725-3.11a5.111 5.111 0 0 1 1.994-2.113c.849-.494 1.823-.74 2.872-.74 1.05 0 1.995.246 2.844.74a5.363 5.363 0 0 1 1.994 2.113c.487.908.725 1.945.725 3.11 0 1.165-.238 2.202-.725 3.11a5.112 5.112 0 0 1-1.994 2.114Z" fill="#222"/><path d="M226.414 30.941c-.945.524-1.651 1.304-2.128 2.33V30.28h-1.937v15.275h2.023v-7.79c0-1.778.448-3.17 1.345-4.158.897-.987 2.128-1.48 3.712-1.48l.487.029V30.15c-1.393 0-2.558.267-3.502.79ZM234.315 45.19c1.116.355 2.28.533 3.501.533l-.009.02c1.937 0 3.454-.386 4.552-1.176 1.097-.78 1.641-1.846 1.641-3.18 0-.996-.257-1.767-.773-2.33a4.273 4.273 0 0 0-1.861-1.194c-.725-.237-1.679-.464-2.881-.701-.964-.178-1.727-.346-2.281-.514a3.486 3.486 0 0 1-1.384-.77c-.372-.345-.553-.81-.553-1.392 0-.76.324-1.372.983-1.836.658-.465 1.631-.701 2.929-.701 1.718 0 3.187.444 4.428 1.313l.887-1.66c-.62-.434-1.422-.77-2.395-1.036a10.93 10.93 0 0 0-2.91-.395c-1.871 0-3.321.415-4.371 1.225-1.049.81-1.574 1.856-1.574 3.14 0 1.026.258 1.826.782 2.409a4.257 4.257 0 0 0 1.899 1.234c.745.237 1.718.474 2.939.71.907.159 1.642.317 2.195.485.554.167 1.012.414 1.374.73.363.316.544.76.544 1.323 0 .79-.325 1.412-.983 1.847-.658.434-1.67.651-3.044.651a9.368 9.368 0 0 1-2.968-.483c-.944-.316-1.736-.731-2.366-1.234l-.916 1.629c.63.543 1.498.997 2.615 1.352Z" fill="#222"/><path fill-rule="evenodd" clip-rule="evenodd" d="M128.645 38.455h12.319l.029-.651c0-1.53-.315-2.893-.926-4.088-.62-1.195-1.47-2.123-2.548-2.794-1.078-.672-2.309-1.008-3.664-1.008s-2.586.336-3.674 1.008c-1.097.671-1.956 1.6-2.576 2.804-.62 1.204-.935 2.557-.935 4.078 0 1.52.324 2.873.983 4.078a7.202 7.202 0 0 0 2.729 2.824c1.164.68 2.5 1.017 4.007 1.017a8.002 8.002 0 0 0 3.226-.652 6.222 6.222 0 0 0 2.443-1.886l-1.117-1.363a5.543 5.543 0 0 1-1.985 1.521c-.763.345-1.603.513-2.519.513-1.622 0-2.958-.503-4.026-1.49-1.07-.988-1.651-2.301-1.766-3.91Zm1.632-5.302c.963-.958 2.156-1.432 3.569-1.432h.009c1.431 0 2.624.474 3.588 1.432.954.948 1.498 2.192 1.631 3.732h-10.429c.124-1.53.668-2.774 1.632-3.732ZM145.821 38.455h12.319l.028-.651c0-1.53-.314-2.893-.925-4.088-.62-1.195-1.47-2.123-2.548-2.794-1.078-.672-2.309-1.008-3.664-1.008s-2.586.336-3.674 1.008c-1.097.671-1.956 1.6-2.576 2.804-.62 1.204-.935 2.557-.935 4.078 0 1.52.324 2.873.983 4.078a7.2 7.2 0 0 0 2.728 2.824c1.165.68 2.5 1.017 4.008 1.017a8.002 8.002 0 0 0 3.226-.652 6.218 6.218 0 0 0 2.442-1.886l-1.116-1.363a5.543 5.543 0 0 1-1.985 1.521c-.763.345-1.603.513-2.519.513-1.622 0-2.958-.503-4.027-1.49-1.069-.988-1.65-2.301-1.765-3.91Zm1.632-5.302c.963-.958 2.156-1.432 3.568-1.432h.01c1.431 0 2.624.474 3.588 1.432.954.948 1.498 2.192 1.631 3.732h-10.429c.124-1.53.668-2.774 1.632-3.732Z" fill="#222"/><path d="M91.335 26.172a.472.472 0 0 1 .459-.493l-.02-.01h3.817c.258 0 .468.217.458.493-.086 2.192-.324 4.878-.735 8.057 2.138-1.125 4.58-2.182 7.31-3.15a.455.455 0 0 1 .591.307l1.222 3.97a.487.487 0 0 1-.296.611c-2.624.88-5.21 1.471-7.739 1.778 1.279 1.165 3.054 3.199 5.334 6.111a.494.494 0 0 1-.086.702l-3.168 2.36a.44.44 0 0 1-.639-.11c-1.212-1.776-2.624-4.117-4.237-7.03-1.498 3.002-2.833 5.352-3.998 7.03a.448.448 0 0 1-.64.1l-3.11-2.35a.505.505 0 0 1-.086-.702c2.376-3.06 4.094-5.094 5.144-6.111a112.245 112.245 0 0 1-7.577-1.797.48.48 0 0 1-.315-.613l1.231-3.94a.456.456 0 0 1 .592-.305c3.254 1.214 5.63 2.28 7.137 3.179-.381-3.752-.591-6.448-.649-8.087Z" fill="#222"/></svg>